<svg width="88" height="35" viewBox="0 0 88 35" fill="none" xmlns="http://www.w3.org/2000/svg">
<rect x="0.85" y="1.40664" width="86.3" height="32.3" rx="8.15" fill="#FF4A4A"/>
<rect x="0.85" y="1.40664" width="86.3" height="32.3" rx="8.15" stroke="#FF4A4A" stroke-width="1.7"/>
<path d="M18.001 12.5566L18.0009 22.5554" stroke="white" stroke-width="1.99979" stroke-linecap="round"/>
<path d="M22.9985 17.5576L12.9998 17.5577" stroke="white" stroke-width="1.99979" stroke-linecap="round"/>
<path d="M40.648 11.5366V18.2246H33.96V11.5366H40.648ZM35.56 24.1766V19.6326H37.288V22.7686H45.16V24.1766H35.56ZM35.656 16.8486H38.92V12.9126H35.656V16.8486ZM42.856 20.6246V10.3206H44.616V14.4806H46.6V15.9206H44.616V20.6246H42.856ZM60.1721 15.9846V17.3606H47.3081V15.9846H60.1721ZM48.8121 24.3046V20.6246H56.8441V19.6326H48.8121V18.3206H58.5721V21.8726H50.5401V22.9286H58.9561V24.3046H48.8121ZM48.9401 15.0566V10.6726H58.5401V12.0806H50.6681V13.6806H58.6361V15.0566H48.9401ZM72.9123 10.3206V24.4326H71.1523V10.3206H72.9123ZM61.2323 20.5606C64.9123 18.8006 66.6243 16.4166 66.9443 13.2006H61.9363V11.8246H68.7203C68.7043 16.0326 67.0723 19.6006 62.1283 21.9366L61.2323 20.5606Z" fill="white"/>
</svg>
