<svg width="24" height="25" viewBox="0 0 24 25" fill="none" xmlns="http://www.w3.org/2000/svg">
<path d="M7.7813 15.0762C7.5953 15.0762 7.4693 15.0942 7.4043 15.1122V16.3052C7.4813 16.3232 7.5783 16.3282 7.7103 16.3282C8.1953 16.3282 8.4953 16.0822 8.4953 15.6692C8.4953 15.2982 8.2373 15.0762 7.7813 15.0762Z" fill="#FF4A4A"/>
<path d="M14 2.5H6C5.46957 2.5 4.96086 2.71071 4.58579 3.08579C4.21071 3.46086 4 3.96957 4 4.5V20.5C4 21.0304 4.21071 21.5391 4.58579 21.9142C4.96086 22.2893 5.46957 22.5 6 22.5H18C18.5304 22.5 19.0391 22.2893 19.4142 21.9142C19.7893 21.5391 20 21.0304 20 20.5V8.5L14 2.5ZM9.03 16.605C8.717 16.898 8.256 17.031 7.717 17.031C7.597 17.031 7.488 17.024 7.405 17.012V18.457H6.499V14.47C6.90768 14.4084 7.32075 14.3806 7.734 14.387C8.297 14.387 8.7 14.494 8.969 14.71C9.227 14.914 9.401 15.25 9.401 15.646C9.401 16.042 9.27 16.377 9.03 16.605ZM13.332 18.458H12.372L11.509 16.898C11.269 16.466 11.005 15.945 10.808 15.471L10.789 15.477C10.813 16.011 10.825 16.581 10.825 17.24V18.458H9.985V14.416H11.052L11.892 15.897C12.132 16.323 12.371 16.827 12.551 17.282H12.57C12.5119 16.7223 12.4858 16.1597 12.492 15.597V14.415H13.332V18.458ZM17.501 18.272C17.0655 18.4161 16.6106 18.493 16.152 18.5C15.415 18.5 14.881 18.314 14.508 17.954C14.137 17.606 13.933 17.079 13.939 16.485C13.945 15.141 14.922 14.374 16.248 14.374C16.769 14.374 17.172 14.477 17.369 14.572L17.178 15.303C16.956 15.207 16.68 15.129 16.237 15.129C15.475 15.129 14.899 15.561 14.899 16.437C14.899 17.27 15.421 17.762 16.17 17.762C16.38 17.762 16.548 17.738 16.62 17.701V16.855H15.996V16.142H17.501V18.272ZM14 9.5H13V4.5L18 9.5H14Z" fill="#FF4A4A"/>
</svg>
