<svg xmlns="http://www.w3.org/2000/svg" width="27" height="29" viewBox="0 0 27 29" fill="none">
<path d="M9.57227 1.31643C6.90653 2.28987 4.6076 4.1375 3.01315 6.58792C1.4187 9.03834 0.612787 11.9624 0.713777 14.9306C0.814767 17.8988 1.81734 20.7547 3.57423 23.0787C5.33113 25.4028 7.74973 27.0726 10.4748 27.8428C12.6841 28.4429 14.9987 28.4692 17.2198 27.9196C19.2319 27.4439 21.0921 26.4262 22.6184 24.9664C24.2068 23.4006 25.3598 21.4086 25.9534 19.2047C26.5983 16.808 26.7131 14.2877 26.2889 11.837H13.8828V17.2542H21.0676C20.924 18.1182 20.6163 18.9428 20.1629 19.6787C19.7094 20.4146 19.1196 21.0467 18.4288 21.537C17.5515 22.1482 16.5625 22.5592 15.5252 22.7438C14.485 22.9474 13.418 22.9474 12.3778 22.7438C11.3235 22.5146 10.3261 22.0565 9.44929 21.3988C8.04057 20.3491 6.98281 18.8579 6.42695 17.1379C5.86186 15.3857 5.86186 13.4861 6.42695 11.7339C6.82262 10.5057 7.47671 9.38742 8.34041 8.46253C9.3288 7.38469 10.5801 6.61424 11.9571 6.23572C13.3341 5.85719 14.7835 5.88522 16.1464 6.31673C17.2111 6.66059 18.1847 7.26167 18.9895 8.07199C19.7996 7.22361 20.6083 6.37304 21.4157 5.52028C21.8325 5.06172 22.2869 4.6251 22.6976 4.15556C21.4689 2.95215 20.0268 2.01569 18.4538 1.3998C15.5892 0.304938 12.4549 0.275515 9.57227 1.31643Z" fill="white"/>
<path d="M9.5728 1.31554C12.4552 0.27392 15.5895 0.302569 18.4543 1.39672C20.0276 2.01679 21.469 2.95777 22.696 4.16565C22.2791 4.63518 21.8393 5.074 21.4141 5.53036C20.6054 6.3802 19.7973 7.22712 18.99 8.0711C18.1852 7.26078 17.2116 6.65971 16.1469 6.31584C14.7845 5.88282 13.3351 5.85317 11.9578 6.23015C10.5804 6.60712 9.32833 7.37615 8.33885 8.45287C7.47516 9.37775 6.82106 10.496 6.4254 11.7242L2.10449 8.20275C3.65111 4.9743 6.32899 2.50478 9.5728 1.31554Z" fill="#E33629"/>
<path d="M0.957675 11.6917C1.18975 10.4801 1.57533 9.30673 2.10408 8.20312L6.42498 11.7334C5.85989 13.4856 5.85989 15.3852 6.42498 17.1374C4.98538 18.3076 3.54508 19.4836 2.10408 20.6655C0.780817 17.8929 0.377245 14.7338 0.957675 11.6917Z" fill="#F8BD00"/>
<path d="M13.885 11.834H26.2911C26.7153 14.2846 26.6005 16.805 25.9556 19.2017C25.362 21.4056 24.209 23.3975 22.6206 24.9633C21.2261 23.818 19.8254 22.6815 18.431 21.5362C19.1223 21.0453 19.7124 20.4126 20.1658 19.6759C20.6193 18.9392 20.9267 18.1137 21.0698 17.249H13.885C13.8829 15.4454 13.885 13.6397 13.885 11.834Z" fill="#587DBD"/>
<path d="M2.10254 20.6648C3.54354 19.4946 4.98384 18.3186 6.42344 17.1367C6.9804 18.8573 8.03968 20.3486 9.44995 21.3976C10.3295 22.0523 11.329 22.5066 12.3847 22.7316C13.425 22.9353 14.4919 22.9353 15.5321 22.7316C16.5694 22.5471 17.5584 22.136 18.4357 21.5249C19.8301 22.6702 21.2308 23.8067 22.6253 24.952C21.0993 26.4127 19.239 27.4311 17.2267 27.9074C15.0057 28.4571 12.691 28.4307 10.4817 27.8306C8.73439 27.3395 7.10227 26.4738 5.68766 25.2877C4.19051 24.0363 2.96763 22.4594 2.10254 20.6648Z" fill="#319F43"/>
</svg>