<svg xmlns="http://www.w3.org/2000/svg" width="14" height="11" viewBox="0 0 14 11" fill="none">
<path d="M7.80295 9.9183C7.40314 10.4569 6.59686 10.4569 6.19704 9.9183L0.390523 2.09604C-0.0992862 1.4362 0.371706 0.500001 1.19348 0.500001L12.8065 0.500002C13.6283 0.500002 14.0993 1.4362 13.6095 2.09604L7.80295 9.9183Z" fill="#303030"/>
<path d="M7.80295 9.9183C7.40314 10.4569 6.59686 10.4569 6.19704 9.9183L0.390523 2.09604C-0.0992862 1.4362 0.371706 0.500001 1.19348 0.500001L12.8065 0.500002C13.6283 0.500002 14.0993 1.4362 13.6095 2.09604L7.80295 9.9183Z" fill="black" fill-opacity="0.2"/>
<path d="M7.80295 9.9183C7.40314 10.4569 6.59686 10.4569 6.19704 9.9183L0.390523 2.09604C-0.0992862 1.4362 0.371706 0.500001 1.19348 0.500001L12.8065 0.500002C13.6283 0.500002 14.0993 1.4362 13.6095 2.09604L7.80295 9.9183Z" fill="black" fill-opacity="0.2"/>
</svg>