<svg width="289" height="172" viewBox="0 0 289 172" fill="none" xmlns="http://www.w3.org/2000/svg">
<ellipse cx="60.7485" cy="112.163" rx="16.7485" ry="16.7485" fill="#FF4A4A"/>
<path d="M66.985 49.4141C66.985 67.6312 52.2171 82.399 34 82.399C15.7829 82.399 1.01502 67.6312 1.01502 49.4141C1.01502 31.197 15.7829 16.4291 34 16.4291C52.2171 16.4291 66.985 31.197 66.985 49.4141Z" stroke="#FF4A4A" stroke-width="2.03004"/>
<circle cx="266.5" cy="89.9141" r="21.485" stroke="#FF4A4A" stroke-width="2.03004"/>
<path d="M211.633 67.234C213.35 66.4043 215.321 67.7446 215.181 69.6465L212.818 101.742C212.678 103.644 210.532 104.681 208.955 103.609L182.341 85.5146C180.764 84.4424 180.939 82.0649 182.656 81.2352L211.633 67.234Z" fill="#FF4A4A"/>
<rect x="137.105" y="112.553" width="49" height="49" rx="1.75" transform="rotate(12.9322 137.105 112.553)" fill="#FF4A4A"/>
<mask id="path-6-inside-1_802_2719" fill="white">
<rect x="161.307" y="0.00195312" width="125.257" height="125.257" rx="1.75" transform="rotate(21.8992 161.307 0.00195312)"/>
</mask>
<rect x="161.307" y="0.00195312" width="125.257" height="125.257" rx="1.75" transform="rotate(21.8992 161.307 0.00195312)" stroke="#FF4A4A" stroke-width="4" mask="url(#path-6-inside-1_802_2719)"/>
</svg>
