<svg width="345" height="144" viewBox="0 0 345 144" fill="none" xmlns="http://www.w3.org/2000/svg">
<path d="M92.4648 71.749C172 71.7493 262.508 71.7497 262.508 71.7497" stroke="url(#paint0_linear_1716_1727)" stroke-width="43" stroke-dasharray="2 2"/>
<rect x="268" y="45.5117" width="72" height="56" fill="white"/>
<path d="M67.6824 29.1064L64.2001 42.9852" stroke="black" stroke-width="2.74239" stroke-linecap="round"/>
<path d="M54.5239 27.6494L58.4359 41.369" stroke="black" stroke-width="2.74239" stroke-linecap="round"/>
<path d="M79.969 34.0322L70.0434 44.2799" stroke="black" stroke-width="2.74239" stroke-linecap="round"/>
<circle cx="55.7104" cy="75.5799" r="40.2439" transform="rotate(14.0853 55.7104 75.5799)" fill="url(#paint1_linear_1716_1727)"/>
<circle cx="33.4822" cy="57.2337" r="19.4129" transform="rotate(14.0853 33.4822 57.2337)" stroke="black" stroke-width="3.80447"/>
<path d="M103.947 74.5656C101.39 84.7557 90.9022 90.9584 80.4752 88.3422C70.0482 85.7259 63.7313 75.3068 66.2881 65.1167C68.8449 54.9265 79.3324 48.7238 89.7594 51.34C100.186 53.9563 106.503 64.3754 103.947 74.5656Z" stroke="black" stroke-width="3.80447"/>
<path d="M66.027 63.7206C66.2034 63.0176 63.497 61.7327 59.982 60.8508C56.4671 59.9689 53.4747 59.8238 53.2983 60.5268" stroke="black" stroke-width="3.80447" stroke-linecap="round"/>
<circle cx="44.3686" cy="63.2058" r="2.98103" transform="rotate(14.0853 44.3686 63.2058)" fill="black"/>
<circle cx="72.1264" cy="70.1716" r="2.98103" transform="rotate(14.0853 72.1264 70.1716)" fill="black"/>
<circle cx="57.3779" cy="70.1574" r="1.78862" transform="rotate(14.0853 57.3779 70.1574)" fill="white"/>
<path d="M59.9283 77.4969C59.3947 79.6238 57.0224 80.8612 54.6297 80.2609C52.237 79.6605 50.73 77.4497 51.2636 75.3229" stroke="black" stroke-width="1.98517" stroke-linecap="round"/>
<path d="M345 47.8867C345 43.2805 341.22 39.5117 336.6 39.5117H269.4C264.78 39.5117 261 43.2805 261 47.8867V98.1367C261 102.743 264.78 106.512 269.4 106.512H336.6C341.22 106.512 345 102.743 345 98.1367V47.8867ZM336.6 47.8867L303 68.7823L269.4 47.8867H336.6ZM336.6 98.1367H269.4V56.2617L303 77.1992L336.6 56.2617V98.1367Z" fill="url(#paint2_linear_1716_1727)"/>
<defs>
<linearGradient id="paint0_linear_1716_1727" x1="403.5" y1="77.3438" x2="73.3479" y2="84.3348" gradientUnits="userSpaceOnUse">
<stop stop-opacity="0.74"/>
<stop offset="1" stop-opacity="0"/>
</linearGradient>
<linearGradient id="paint1_linear_1716_1727" x1="55.7104" y1="35.336" x2="55.7104" y2="115.824" gradientUnits="userSpaceOnUse">
<stop stop-color="#FEB399"/>
<stop offset="0.721348" stop-color="#FF5285"/>
<stop offset="0.943725" stop-color="#FF4A4A"/>
</linearGradient>
<linearGradient id="paint2_linear_1716_1727" x1="303" y1="39.5117" x2="303" y2="106.512" gradientUnits="userSpaceOnUse">
<stop stop-color="#FF5284"/>
<stop offset="1" stop-color="#FF4B4B"/>
</linearGradient>
</defs>
</svg>
