<svg width="18" height="18" viewBox="0 0 18 18" fill="none" xmlns="http://www.w3.org/2000/svg">
<path d="M15.0844 2.2327H13.4083V1.39467C13.4083 1.17241 13.32 0.959254 13.1629 0.802093C13.0057 0.644933 12.7925 0.556641 12.5703 0.556641C12.348 0.556641 12.1349 0.644933 11.9777 0.802093C11.8205 0.959254 11.7323 1.17241 11.7323 1.39467V2.2327H6.70409V1.39467C6.70409 1.17241 6.6158 0.959254 6.45863 0.802093C6.30147 0.644933 6.08832 0.556641 5.86606 0.556641C5.6438 0.556641 5.43064 0.644933 5.27348 0.802093C5.11632 0.959254 5.02803 1.17241 5.02803 1.39467V2.2327H3.35197C2.6852 2.2327 2.04573 2.49757 1.57425 2.96906C1.10277 3.44054 0.837891 4.08 0.837891 4.74678V14.8031C0.837891 15.4699 1.10277 16.1094 1.57425 16.5808C2.04573 17.0523 2.6852 17.3172 3.35197 17.3172H15.0844C15.7511 17.3172 16.3906 17.0523 16.8621 16.5808C17.3336 16.1094 17.5985 15.4699 17.5985 14.8031V4.74678C17.5985 4.08 17.3336 3.44054 16.8621 2.96906C16.3906 2.49757 15.7511 2.2327 15.0844 2.2327ZM15.9224 14.8031C15.9224 15.0254 15.8341 15.2385 15.6769 15.3957C15.5198 15.5529 15.3066 15.6411 15.0844 15.6411H3.35197C3.12972 15.6411 2.91656 15.5529 2.7594 15.3957C2.60224 15.2385 2.51395 15.0254 2.51395 14.8031V8.93692H15.9224V14.8031ZM15.9224 7.26087H2.51395V4.74678C2.51395 4.52452 2.60224 4.31137 2.7594 4.15421C2.91656 3.99705 3.12972 3.90875 3.35197 3.90875H5.02803V4.74678C5.02803 4.96904 5.11632 5.1822 5.27348 5.33936C5.43064 5.49652 5.6438 5.58481 5.86606 5.58481C6.08832 5.58481 6.30147 5.49652 6.45863 5.33936C6.6158 5.1822 6.70409 4.96904 6.70409 4.74678V3.90875H11.7323V4.74678C11.7323 4.96904 11.8205 5.1822 11.9777 5.33936C12.1349 5.49652 12.348 5.58481 12.5703 5.58481C12.7925 5.58481 13.0057 5.49652 13.1629 5.33936C13.32 5.1822 13.4083 4.96904 13.4083 4.74678V3.90875H15.0844C15.3066 3.90875 15.5198 3.99705 15.6769 4.15421C15.8341 4.31137 15.9224 4.52452 15.9224 4.74678V7.26087Z" fill="#FF4A4A"/>
</svg>
