<svg width="145" height="30" viewBox="0 0 145 30" fill="none" xmlns="http://www.w3.org/2000/svg">
<rect x="13.9062" y="13.8848" width="117.188" height="1.5625" fill="#606060"/>
<circle cx="14.4784" cy="15.0351" r="13.5342" fill="white" stroke="#606060" stroke-width="1.88849"/>
<path d="M16.5832 8.96595V21.002H14.4072V11.074H14.3392L11.5172 12.876V10.904L14.5092 8.96595H16.5832Z" fill="#606060"/>
<circle cx="72.5019" cy="15.0351" r="13.5342" fill="white" stroke="#606060" stroke-width="1.88849"/>
<path d="M68.4848 21.002L68.4508 19.438L72.7008 15.358C73.9248 14.134 74.5538 13.42 74.5708 12.4C74.5538 11.278 73.6698 10.581 72.4968 10.564C71.2558 10.581 70.4568 11.346 70.4568 12.57H68.4168C68.3998 10.292 70.1168 8.81295 72.5308 8.82995C74.9618 8.81295 76.6278 10.275 76.6448 12.298C76.6278 13.658 75.9648 14.763 73.6188 16.99L71.4768 19.098V19.2H76.8148V21.002H68.4848Z" fill="#606060"/>
<circle cx="130.478" cy="15.0351" r="13.5342" fill="#606060" stroke="#606060" stroke-width="1.88849"/>
<path d="M130.032 21.172C127.465 21.172 125.629 19.778 125.578 17.738H127.754C127.805 18.707 128.774 19.353 130.032 19.336C131.341 19.353 132.293 18.622 132.31 17.568C132.293 16.463 131.375 15.698 129.794 15.698H128.74V14.032H129.794C131.086 14.032 131.97 13.318 131.97 12.264C131.97 11.261 131.205 10.581 130.032 10.564C128.91 10.581 127.941 11.21 127.89 12.23H125.816C125.867 10.207 127.703 8.81295 130.066 8.82995C132.497 8.81295 134.078 10.309 134.044 12.162C134.078 13.505 133.177 14.474 131.868 14.746V14.848C133.568 15.069 134.52 16.157 134.52 17.67C134.52 19.693 132.616 21.172 130.032 21.172Z" fill="white"/>
</svg>
