<svg width="18" height="18" viewBox="0 0 18 18" fill="none" xmlns="http://www.w3.org/2000/svg">
<path fill-rule="evenodd" clip-rule="evenodd" d="M9.7022 0.867253C9.89135 0.803492 10.0923 0.783943 10.29 0.810074C10.4876 0.836204 10.6769 0.907335 10.8436 1.01813C11.0102 1.12892 11.1499 1.2765 11.2522 1.44979C11.3545 1.62308 11.4167 1.81757 11.4341 2.01868L11.4394 2.13632V7.02543L14.7782 7.70274C15.0564 7.75889 15.3094 7.90434 15.4996 8.11751C15.6898 8.33069 15.8072 8.60025 15.8342 8.88625L15.8395 9.0128V15.777H16.7195C16.9438 15.7772 17.1596 15.8642 17.3227 16.0202C17.4858 16.1761 17.5839 16.3892 17.5971 16.616C17.6102 16.8427 17.5374 17.066 17.3934 17.2402C17.2494 17.4144 17.0452 17.5263 16.8225 17.5532L16.7195 17.5594H0.879052C0.654751 17.5591 0.43901 17.4722 0.275909 17.3162C0.112809 17.1603 0.0146587 16.9472 0.00151368 16.7204C-0.0116314 16.4937 0.0612206 16.2704 0.205184 16.0962C0.349148 15.922 0.553358 15.8101 0.776089 15.7832L0.879052 15.777H1.75908V4.51225C1.75908 3.97753 2.07237 3.49985 2.54934 3.28775L2.66199 3.24408L9.7022 0.867253ZM9.67932 2.75481L3.51913 4.83398V15.777H9.67932V2.75481ZM11.4394 8.84437V15.777H14.0795V9.37819L11.4394 8.84437Z" fill="#FF4A4A"/>
</svg>
