<svg width="19" height="21" viewBox="0 0 19 21" fill="none" xmlns="http://www.w3.org/2000/svg">
<path d="M14.5481 17.649L14.548 17.649C13.2957 18.4527 11.5135 18.9781 9.5 18.9781C7.4865 18.9781 5.70434 18.4527 4.45197 17.649L4.45186 17.6489C3.18917 16.8401 2.56667 15.8257 2.56667 14.8424V14.4852C2.56667 14.2404 2.66311 14.0059 2.83437 13.8332C3.0056 13.6606 3.23756 13.5638 3.47917 13.5638H15.5208C15.7624 13.5638 15.9944 13.6606 16.1656 13.8332C16.3369 14.0059 16.4333 14.2404 16.4333 14.4852V14.8424C16.4333 15.8263 15.8102 16.8394 14.5481 17.649ZM15.4708 19.1065L15.3898 18.9802L15.4708 19.1064C17.0279 18.1071 18.15 16.6203 18.15 14.8424V14.4852C18.15 13.7828 17.8733 13.1089 17.3804 12.6118C16.8874 12.1147 16.2185 11.8352 15.5208 11.8352H3.47917C2.78146 11.8352 2.11259 12.1147 1.61962 12.6118C1.1267 13.1089 0.85 13.7828 0.85 14.4852V14.8424C0.85 16.6203 1.97205 18.1071 3.52917 19.1064C5.09671 20.1127 7.2104 20.7066 9.5 20.7066C11.7896 20.7066 13.9026 20.1127 15.4708 19.1065ZM13.1126 9.1978C14.0704 8.23189 14.6083 6.9221 14.6083 5.55664C14.6083 4.19118 14.0704 2.88139 13.1126 1.91549C12.1547 0.949536 10.8552 0.406641 9.5 0.406641C8.14478 0.406641 6.84532 0.949536 5.88742 1.91549C4.92956 2.88139 4.39167 4.19118 4.39167 5.55664C4.39167 6.9221 4.92956 8.23189 5.88742 9.1978C6.84532 10.1637 8.14478 10.7066 9.5 10.7066C10.8552 10.7066 12.1547 10.1637 13.1126 9.1978ZM11.8978 3.13688C12.534 3.77843 12.8917 4.64882 12.8917 5.55664C12.8917 6.46446 12.534 7.33485 11.8978 7.9764C11.2617 8.61791 10.3991 8.97807 9.5 8.97807C8.60088 8.97807 7.73833 8.61791 7.10217 7.9764C6.46597 7.33485 6.10833 6.46446 6.10833 5.55664C6.10833 4.64882 6.46597 3.77843 7.10217 3.13688C7.73833 2.49538 8.60088 2.13521 9.5 2.13521C10.3991 2.13521 11.2617 2.49538 11.8978 3.13688Z" fill="#959595" stroke="#959595" stroke-width="0.3"/>
</svg>
