<svg width="16" height="18" viewBox="0 0 16 18" fill="none" xmlns="http://www.w3.org/2000/svg">
<path d="M12.8027 15.9847L12.8027 15.9847C14.1076 15.1472 15.048 13.9013 15.048 12.4113V12.112C15.048 11.5233 14.8161 10.9586 14.403 10.542C13.9899 10.1254 13.4293 9.89121 12.8446 9.89121H2.75339C2.1687 9.89121 1.60816 10.1254 1.19504 10.542C0.781958 10.9586 0.550077 11.5233 0.550077 12.112V12.4113C0.550077 13.9013 1.49039 15.1472 2.79531 15.9847C4.10895 16.828 5.88028 17.3257 7.79902 17.3257C9.71778 17.3257 11.4885 16.828 12.8027 15.9847ZM12.0294 14.7633L12.0294 14.7633C10.9799 15.4369 9.48639 15.8771 7.79902 15.8771C6.11165 15.8771 4.61815 15.4369 3.56863 14.7633L3.56854 14.7632C2.51037 14.0855 1.98869 13.2353 1.98869 12.4113V12.112C1.98869 11.9069 2.06951 11.7103 2.21304 11.5656C2.35653 11.4209 2.55092 11.3398 2.75339 11.3398H12.8446C13.0471 11.3398 13.2415 11.4209 13.385 11.5656C13.5285 11.7103 13.6094 11.9069 13.6094 12.112V12.4113C13.6094 13.2359 13.0872 14.0849 12.0294 14.7633ZM10.8265 7.68098C11.6292 6.87153 12.0799 5.77389 12.0799 4.62959C12.0799 3.4853 11.6292 2.38766 10.8265 1.5782C10.0237 0.76871 8.93473 0.313749 7.79902 0.313749C6.66331 0.313749 5.57432 0.76871 4.77158 1.5782C3.96887 2.38766 3.51809 3.4853 3.51809 4.62959C3.51809 5.77389 3.96887 6.87153 4.77158 7.68098C5.57432 8.49048 6.66331 8.94544 7.79902 8.94544C8.93473 8.94544 10.0237 8.49048 10.8265 7.68098ZM9.80847 2.60177C10.3416 3.1394 10.6413 3.86881 10.6413 4.62959C10.6413 5.39037 10.3416 6.11979 9.80847 6.65742C9.27535 7.19502 8.55251 7.49685 7.79902 7.49685C7.04553 7.49685 6.32269 7.19502 5.78957 6.65742C5.25642 6.11979 4.95671 5.39037 4.95671 4.62959C4.95671 3.86881 5.25642 3.1394 5.78957 2.60177C6.32269 2.06417 7.04553 1.76234 7.79902 1.76234C8.55251 1.76234 9.27535 2.06417 9.80847 2.60177Z" fill="#FF4A4A" stroke="#FF4A4A" stroke-width="0.251408"/>
</svg>
