<svg width="20" height="19" viewBox="0 0 20 19" fill="none" xmlns="http://www.w3.org/2000/svg">
<path d="M15 13.5566L19 9.55664M19 9.55664L15 5.55664M19 9.55664H5M11 13.5566V14.5566C11 15.3523 10.6839 16.1154 10.1213 16.678C9.55871 17.2406 8.79565 17.5566 8 17.5566H4C3.20435 17.5566 2.44129 17.2406 1.87868 16.678C1.31607 16.1154 1 15.3523 1 14.5566V4.55664C1 3.76099 1.31607 2.99793 1.87868 2.43532C2.44129 1.87271 3.20435 1.55664 4 1.55664H8C8.79565 1.55664 9.55871 1.87271 10.1213 2.43532C10.6839 2.99793 11 3.76099 11 4.55664V5.55664" stroke="#FF4A4A" stroke-width="2" stroke-linecap="round" stroke-linejoin="round"/>
</svg>
