<svg width="18" height="18" viewBox="0 0 18 18" fill="none" xmlns="http://www.w3.org/2000/svg">
<path d="M0.837891 8.85523C0.837891 9.89782 1.04324 10.9302 1.44223 11.8934C1.84121 12.8567 2.42601 13.7319 3.16323 14.4691C3.90046 15.2063 4.77567 15.7911 5.7389 16.1901C6.70213 16.5891 7.73451 16.7944 8.7771 16.7944C9.8197 16.7944 10.8521 16.5891 11.8153 16.1901C12.7785 15.7911 13.6538 15.2063 14.391 14.4691C15.1282 13.7319 15.713 12.8567 16.112 11.8934C16.511 10.9302 16.7163 9.89782 16.7163 8.85523C16.7163 6.74962 15.8799 4.73025 14.391 3.24136C12.9021 1.75247 10.8827 0.916016 8.7771 0.916016C6.67149 0.916016 4.65212 1.75247 3.16323 3.24136C1.67434 4.73025 0.837891 6.74962 0.837891 8.85523Z" stroke="#FF4A4A" stroke-width="1.67606" stroke-linecap="round" stroke-linejoin="round"/>
<path d="M8.77734 4.44434V8.85501L11.4237 11.5014" stroke="#FF4A4A" stroke-width="1.67606" stroke-linecap="round" stroke-linejoin="round"/>
</svg>
