<svg width="145" height="29" viewBox="0 0 145 29" fill="none" xmlns="http://www.w3.org/2000/svg">
<rect x="13.9062" y="13.3281" width="117.188" height="1.5625" fill="#606060"/>
<circle cx="14.4784" cy="14.4784" r="13.5342" fill="white" stroke="#606060" stroke-width="1.88849"/>
<path d="M16.5832 8.40931V20.4453H14.4072V10.5173H14.3392L11.5172 12.3193V10.3473L14.5092 8.40931H16.5832Z" fill="#606060"/>
<circle cx="72.5019" cy="14.4784" r="13.5342" fill="#606060" stroke="#606060" stroke-width="1.88849"/>
<path d="M68.4848 20.4453L68.4508 18.8813L72.7008 14.8013C73.9248 13.5773 74.5538 12.8633 74.5708 11.8433C74.5538 10.7213 73.6698 10.0243 72.4968 10.0073C71.2558 10.0243 70.4568 10.7893 70.4568 12.0133H68.4168C68.3998 9.73531 70.1168 8.25631 72.5308 8.27331C74.9618 8.25631 76.6278 9.71831 76.6448 11.7413C76.6278 13.1013 75.9648 14.2063 73.6188 16.4333L71.4768 18.5413V18.6433H76.8148V20.4453H68.4848Z" fill="white"/>
<circle cx="130.478" cy="14.4784" r="13.5342" fill="white" stroke="#606060" stroke-width="1.88849"/>
<path d="M130.032 20.6153C127.465 20.6153 125.629 19.2213 125.578 17.1813H127.754C127.805 18.1503 128.774 18.7963 130.032 18.7793C131.341 18.7963 132.293 18.0653 132.31 17.0113C132.293 15.9063 131.375 15.1413 129.794 15.1413H128.74V13.4753H129.794C131.086 13.4753 131.97 12.7613 131.97 11.7073C131.97 10.7043 131.205 10.0243 130.032 10.0073C128.91 10.0243 127.941 10.6533 127.89 11.6733H125.816C125.867 9.65031 127.703 8.25631 130.066 8.27331C132.497 8.25631 134.078 9.75231 134.044 11.6053C134.078 12.9483 133.177 13.9173 131.868 14.1893V14.2913C133.568 14.5123 134.52 15.6003 134.52 17.1133C134.52 19.1363 132.616 20.6153 130.032 20.6153Z" fill="#606060"/>
</svg>
