<svg width="21" height="21" viewBox="0 0 21 21" fill="none" xmlns="http://www.w3.org/2000/svg">
<path d="M13.1503 7.98671V8.39546L13.5509 8.47672L17.5351 9.28494L17.5356 9.28504C17.7609 9.33051 17.9668 9.44848 18.1223 9.62275C18.2752 9.79418 18.3713 10.011 18.3957 10.2424L18.4009 10.3686V18.4297V18.9297H18.9009H19.9505C20.0888 18.9299 20.2229 18.9835 20.3252 19.0813C20.4278 19.1793 20.4906 19.3146 20.499 19.4598C20.5075 19.6051 20.4607 19.7472 20.3698 19.8572C20.2817 19.9637 20.1591 20.0321 20.0264 20.0512L19.9359 20.0566H1.04951C0.911246 20.0565 0.777106 20.0029 0.67476 19.9051C0.572225 19.807 0.509388 19.6718 0.500968 19.5266C0.492547 19.3813 0.53934 19.2392 0.630246 19.1292C0.718279 19.0227 0.840872 18.9543 0.973568 18.9352L1.06408 18.9297H2.09907H2.59907V18.4297V4.98779C2.59907 4.5503 2.85287 4.16273 3.23521 3.98799L3.34691 3.94469L11.7371 1.11209C11.7372 1.11208 11.7372 1.11207 11.7373 1.11205C11.7373 1.11204 11.7373 1.11203 11.7374 1.11202C11.8907 1.06038 12.0533 1.0446 12.2133 1.06575C12.3733 1.0869 12.5269 1.14453 12.6626 1.2347C12.7982 1.32489 12.9125 1.4454 12.9964 1.58756C13.0787 1.72705 13.1296 1.88366 13.1451 2.04605L13.1503 2.16386V7.98671ZM12.0501 2.89067V2.1942L11.3902 2.41693L4.03941 4.89795L3.6993 5.01274V5.37169V18.4297V18.9297H4.1993H11.5501H12.0501V18.4297V2.89067ZM13.7494 9.66712L13.1503 9.54598V10.1572V18.4297V18.9297H13.6503H16.8007H17.3007V18.4297V10.7942V10.3852L16.8998 10.3041L13.7494 9.66712Z" fill="#FF4A4A" stroke="#959595"/>
</svg>
