<svg width="20" height="21" viewBox="0 0 20 21" fill="none" xmlns="http://www.w3.org/2000/svg">
<path d="M17.8535 12.499L17.7635 11.5944L17.7335 11.5971L17.7044 11.6026L17.8535 12.499ZM17.8535 12.499L17.9445 13.4036L17.9745 13.4009L18.0035 13.3963L17.8535 12.499ZM14.1806 17.4829L14.7561 16.7792L14.7489 16.7737L14.1806 17.4829ZM14.1806 17.4829L13.6052 18.1865L13.6124 18.1929L14.1806 17.4829ZM5.82028 17.4829L5.2448 16.7801L5.23025 16.7919L5.21661 16.8037L5.82028 17.4829ZM5.82028 17.4829L6.39576 18.1874L6.4103 18.1756L6.42394 18.1629L5.82028 17.4829ZM2.14648 8.6152V7.70607H2.10102L2.05647 7.71061L2.14648 8.6152ZM2.14648 8.6152V9.52433H2.19193L2.23739 9.51978L2.14648 8.6152ZM12.847 2.61221C12.8317 2.43736 12.8102 2.26302 12.7842 2.08945C12.7559 1.89847 12.6976 1.71316 12.6115 1.54034L10.996 2.37492C10.9751 2.33401 10.9796 2.31946 10.9914 2.39129C11.0051 2.4722 11.0169 2.58493 11.0378 2.79403L12.847 2.61221ZM12.9333 3.47588C12.9906 3.55043 12.9715 3.58407 12.9397 3.40679C12.9097 3.23769 12.886 3.0004 12.847 2.61221L11.0369 2.79312C11.0732 3.15132 11.1041 3.47315 11.1505 3.72953C11.1951 3.97499 11.2732 4.29773 11.4869 4.57775L12.9333 3.47588ZM12.9333 3.47588L11.4869 4.57775C11.6815 4.83307 11.9401 5.03234 12.2367 5.15529C12.5332 5.27825 12.857 5.32051 13.1751 5.27778L12.9333 3.47588ZM13.6043 2.92586C13.4005 3.09805 13.191 3.26331 12.976 3.42133C12.8279 3.52406 12.8397 3.4877 12.9333 3.47588L13.1751 5.27778C13.5243 5.2305 13.8079 5.05777 14.0134 4.91413C14.227 4.76685 14.477 4.56138 14.7552 4.33319L13.6043 2.92586ZM14.5279 2.33492C14.345 2.39608 14.1729 2.48567 14.0179 2.60039C13.8906 2.6913 13.7479 2.80858 13.6043 2.92586L14.7552 4.33319C14.918 4.20046 15.0061 4.12864 15.0734 4.08136C15.1325 4.03863 15.1243 4.05318 15.0816 4.06682L14.5279 2.33492ZM15.8044 2.39856C15.4006 2.22359 14.9471 2.20098 14.5279 2.33492L15.0816 4.06682L15.8044 2.39856ZM16.6644 3.07859C16.542 2.95267 16.4156 2.83078 16.2853 2.71312C16.1422 2.5836 15.9796 2.47744 15.8034 2.39856L15.0816 4.06682C15.0398 4.04863 15.0334 4.03409 15.088 4.08227C15.1498 4.13682 15.2307 4.21591 15.3789 4.3641L16.6644 3.07859ZM17.4772 3.89135L16.6644 3.07859L15.3789 4.3641L16.1916 5.17686L17.4772 3.89135ZM18.1572 4.75139C18.0783 4.57525 17.9722 4.41264 17.8426 4.26955C17.7247 4.13976 17.6028 4.01363 17.4772 3.89135L16.1916 5.17777C16.3398 5.32596 16.4189 5.40687 16.4735 5.4687C16.5217 5.52324 16.5071 5.51688 16.4889 5.47506L18.1572 4.75139ZM18.2208 6.02781C18.3548 5.60865 18.3322 5.15515 18.1572 4.75139L16.4889 5.47506L18.2208 6.02781ZM17.6299 6.95149C17.743 6.81732 17.8516 6.67936 17.9554 6.53783C18.0517 6.40328 18.1554 6.236 18.2208 6.02781L16.4889 5.47506C16.5026 5.43233 16.5162 5.42324 16.4744 5.48324C16.4271 5.54961 16.3562 5.63779 16.2226 5.80053L17.6299 6.95149ZM17.0799 7.62334C17.0681 7.71698 17.0317 7.72789 17.1344 7.5797C17.2317 7.43878 17.3826 7.25332 17.6299 6.95149L16.2226 5.80053C15.9953 6.07872 15.7889 6.32873 15.6407 6.54238C15.498 6.74784 15.3252 7.03149 15.278 7.3806L17.0799 7.62334ZM17.0799 7.62334L15.278 7.3806C15.2352 7.69875 15.2775 8.02254 15.4005 8.31907C15.5234 8.6156 15.7227 8.87429 15.978 9.06886L17.0799 7.62334ZM17.9435 7.7097C17.6777 7.68745 17.4127 7.65622 17.149 7.61606C16.9717 7.58424 17.0053 7.56606 17.0799 7.62334L15.978 9.06886C16.258 9.2825 16.5798 9.36069 16.8271 9.40523C17.0826 9.45069 17.4044 9.48251 17.7626 9.51888L17.9435 7.7097ZM19.0154 7.94426C18.8426 7.85817 18.6573 7.79988 18.4663 7.77153C18.2927 7.74552 18.1184 7.72491 17.9435 7.7097L17.7626 9.51888C17.8972 9.53074 18.0315 9.54589 18.1654 9.56433C18.2381 9.57706 18.2226 9.58161 18.1817 9.5607L19.0154 7.94426ZM19.8727 8.89248C19.7111 8.48306 19.4065 8.14615 19.0154 7.94426L18.1826 9.56251L19.8727 8.89248ZM20 9.98162C20 9.79616 20 9.61161 19.99 9.45524C19.9805 9.2623 19.9407 9.07206 19.8718 8.89157L18.1826 9.56251C18.1663 9.51978 18.1717 9.50524 18.1772 9.57797C18.1826 9.65979 18.1826 9.77343 18.1826 9.98344L20 9.98162ZM20 11.1308V9.98162H18.1817V11.1308H20ZM19.8727 12.2199C19.9527 12.0172 19.9791 11.8226 19.99 11.6562C20 11.5008 20 11.3162 20 11.1308H18.1817C18.1817 11.3408 18.1817 11.4544 18.1763 11.5362C18.1708 11.609 18.1654 11.5944 18.1817 11.5517L19.8727 12.2199ZM19.0154 13.1681C19.4065 12.9662 19.7111 12.6293 19.8727 12.2199L18.1826 11.5526L19.0154 13.1681ZM17.9435 13.4027C18.129 13.3845 18.3117 13.3663 18.4663 13.3409C18.6299 13.3136 18.8209 13.2681 19.0154 13.1681L18.1826 11.5526C18.2226 11.5317 18.2381 11.5362 18.1663 11.5481C18.0325 11.5674 17.8982 11.5829 17.7635 11.5944L17.9435 13.4027ZM17.0808 13.4891C17.0053 13.5463 16.9717 13.5281 17.149 13.4963C17.3181 13.4663 17.5553 13.4418 17.9435 13.4027L17.7626 11.5935C17.4053 11.6299 17.0826 11.6608 16.8271 11.7072C16.5808 11.7517 16.258 11.8299 15.978 12.0435L17.0808 13.4891ZM17.0808 13.4891L15.978 12.0435C15.7227 12.2381 15.5234 12.4968 15.4005 12.7933C15.2775 13.0898 15.2352 13.4136 15.278 13.7318L17.0808 13.4891ZM17.6299 14.16C17.4577 13.9565 17.2925 13.7473 17.1344 13.5327C17.0317 13.3845 17.069 13.3954 17.0808 13.4891L15.278 13.7318C15.3252 14.0809 15.498 14.3645 15.6416 14.57C15.7898 14.7837 15.9953 15.0337 16.2226 15.3119L17.6299 14.16ZM18.2208 15.0837C18.1596 14.9011 18.07 14.7293 17.9554 14.5746C17.8645 14.4464 17.7472 14.3045 17.6299 14.16L16.2226 15.3119C16.3553 15.4746 16.4271 15.5619 16.4744 15.6291C16.5171 15.6882 16.5035 15.681 16.4889 15.6382L18.2208 15.0837ZM18.1572 16.361C18.3324 15.957 18.355 15.5031 18.2208 15.0837L16.4889 15.6382L18.1572 16.361ZM17.4772 17.221C17.609 17.0892 17.739 16.9601 17.8426 16.8419C17.9517 16.7165 18.0699 16.561 18.1572 16.3601L16.4889 15.6373C16.5071 15.5955 16.5217 15.5901 16.4735 15.6446C16.4189 15.7064 16.3398 15.7864 16.1916 15.9355L17.4772 17.221ZM16.6644 18.0329L17.4772 17.221L16.1916 15.9355L15.3789 16.7474L16.6644 18.0329ZM15.8044 18.7138C15.9806 18.6347 16.1432 18.5282 16.2862 18.3984C16.4035 18.2956 16.5335 18.1647 16.6644 18.0329L15.3789 16.7474C15.2846 16.844 15.1876 16.938 15.088 17.0292C15.0334 17.0783 15.0398 17.0638 15.0816 17.0456L15.8044 18.7138ZM14.5279 18.7775C14.9471 18.9114 15.4006 18.8888 15.8044 18.7138L15.0816 17.0456L14.5279 18.7775ZM13.6043 18.1865C13.7479 18.3038 13.8897 18.4211 14.0179 18.512C14.1525 18.6075 14.3197 18.7111 14.5279 18.7775L15.0816 17.0456C15.1243 17.0592 15.1325 17.0728 15.0725 17.031C14.9644 16.9501 14.8585 16.8662 14.7552 16.7792L13.6043 18.1865ZM12.9333 17.6374C12.8397 17.6238 12.8279 17.5874 12.976 17.6901C13.117 17.7883 13.3015 17.9383 13.6034 18.1856L14.7552 16.7792C14.477 16.551 14.227 16.3455 14.0134 16.1974C13.8079 16.0537 13.5243 15.8819 13.1751 15.8346L12.9333 17.6374ZM12.9333 17.6374L13.1751 15.8346C12.857 15.7919 12.5332 15.8341 12.2367 15.9571C11.9401 16.0801 11.6815 16.2793 11.4869 16.5346L12.9333 17.6374ZM12.846 18.5002C12.8851 18.112 12.9097 17.8738 12.9397 17.7056C12.9715 17.5283 12.9897 17.5611 12.9324 17.6365L11.4869 16.5337C11.2732 16.8137 11.1951 17.1365 11.1505 17.3829C11.1051 17.6392 11.0741 17.9611 11.0378 18.3193L12.846 18.5002ZM12.6106 19.5721C12.7106 19.3775 12.756 19.1866 12.7833 19.0229C12.8106 18.8684 12.827 18.6856 12.846 18.5002L11.0378 18.3193C11.0257 18.4542 11.0099 18.5879 10.9905 18.722C10.9787 18.7947 10.9741 18.7793 10.9951 18.7384L12.6106 19.5721ZM11.6642 20.4294C12.0729 20.2674 12.4091 19.9628 12.6106 19.5721L10.996 18.7393L11.6642 20.4294ZM10.5732 20.5566C10.7596 20.5566 10.9441 20.5566 11.1005 20.5466C11.266 20.5357 11.4605 20.5112 11.6642 20.4294L10.996 18.7393C11.0387 18.7229 11.0532 18.7284 10.9805 18.7338C10.8454 18.7395 10.7102 18.7413 10.575 18.7393L10.5732 20.5566ZM9.42498 20.5566H10.5732L10.5741 18.7384H9.42498V20.5566ZM8.33584 20.4294C8.53858 20.5094 8.73313 20.5357 8.8995 20.5466C9.05497 20.5566 9.23952 20.5566 9.42498 20.5566V18.7384C9.21497 18.7384 9.10133 18.7384 9.01951 18.7329C8.94678 18.7275 8.96133 18.722 9.00406 18.7384L8.33584 20.4294ZM7.38762 19.5721C7.58951 19.9632 7.92642 20.2678 8.33584 20.4294L9.00406 18.7384L7.38762 19.5721ZM7.15306 18.5002C7.17125 18.6856 7.18943 18.8684 7.21488 19.0229C7.24216 19.1866 7.28762 19.3775 7.38762 19.5721L9.00587 18.7393C9.02678 18.7793 9.02224 18.7947 9.01042 18.7229C8.99106 18.5892 8.9756 18.4548 8.96405 18.3202L7.15306 18.5002ZM7.0667 17.6365C7.00942 17.562 7.0276 17.5274 7.05942 17.7056C7.08943 17.8738 7.11397 18.112 7.15306 18.5002L8.96223 18.3193C8.92587 17.9611 8.89496 17.6392 8.84859 17.3829C8.80405 17.1374 8.72586 16.8147 8.51221 16.5346L7.0667 17.6365ZM7.0667 17.6365L8.51221 16.5346C8.31765 16.2793 8.05896 16.0801 7.76243 15.9571C7.4659 15.8341 7.14211 15.7919 6.82396 15.8346L7.0667 17.6365ZM6.39485 18.1865C6.69759 17.9393 6.88214 17.7883 7.02306 17.6911C7.17125 17.5883 7.16034 17.6247 7.0667 17.6365L6.82396 15.8346C6.47485 15.8819 6.1912 16.0546 5.98574 16.1983C5.77209 16.3455 5.52208 16.551 5.24389 16.7792L6.39485 18.1865ZM5.47117 18.7775C5.65406 18.7163 5.82618 18.6267 5.98119 18.512C6.10847 18.4211 6.25121 18.3038 6.39485 18.1865L5.2448 16.7801C5.14117 16.8671 5.03597 16.9511 4.92751 17.0319C4.86842 17.0747 4.8766 17.061 4.91933 17.0465L5.47117 18.7775ZM4.19475 18.7138C4.59851 18.8888 5.05201 18.9114 5.47117 18.7775L4.91751 17.0456L4.19475 18.7138ZM3.3338 18.0338C3.46563 18.1656 3.59563 18.2956 3.71382 18.3993C3.83837 18.5084 3.99383 18.6275 4.19566 18.7147L4.91751 17.0456C4.95933 17.0638 4.96569 17.0783 4.91115 17.0301C4.81147 16.939 4.71446 16.845 4.62022 16.7483L3.3338 18.0338ZM2.52195 17.221L3.33471 18.0338L4.62022 16.7483L3.80746 15.9355L2.52195 17.221ZM1.84192 16.361C1.92829 16.561 2.04738 16.7174 2.15648 16.8428C2.26012 16.9601 2.39012 17.0901 2.52195 17.221L3.80746 15.9355C3.71074 15.8413 3.61676 15.7443 3.52563 15.6446C3.47745 15.5901 3.49199 15.5964 3.51017 15.6382L1.84192 16.361ZM1.77828 15.0846C1.64434 15.5037 1.66695 15.9572 1.84192 16.361L3.51017 15.6382L1.77828 15.0846ZM2.36921 14.1609C2.25608 14.2951 2.14753 14.433 2.04375 14.5746C1.92903 14.7296 1.83944 14.9017 1.77828 15.0846L3.51017 15.6382C3.49563 15.681 3.4829 15.6892 3.52472 15.6291C3.572 15.5628 3.64291 15.4746 3.77655 15.3119L2.36921 14.1609ZM2.91833 13.4891C2.93106 13.3954 2.96742 13.3845 2.86469 13.5327C2.76741 13.6736 2.6165 13.8591 2.36921 14.1609L3.77655 15.3119C4.00383 15.0337 4.21021 14.7837 4.35839 14.57C4.50113 14.3645 4.67386 14.0809 4.72114 13.7318L2.91833 13.4891ZM2.91833 13.4891L4.72114 13.7318C4.76387 13.4136 4.72161 13.0898 4.59865 12.7933C4.4757 12.4968 4.27643 12.2381 4.02111 12.0435L2.91833 13.4891ZM2.05466 13.4027C2.44376 13.4418 2.68196 13.4663 2.85015 13.4963C3.02743 13.5281 2.99379 13.5463 2.91833 13.4891L4.02111 12.0435C3.74109 11.8299 3.41926 11.7517 3.17198 11.7072C2.91651 11.6617 2.59468 11.6299 2.23557 11.5935L2.05466 13.4027ZM0.983699 13.1681C1.17825 13.2681 1.36917 13.3136 1.53281 13.3409C1.68737 13.3663 1.8701 13.3854 2.05556 13.4036L2.23557 11.5935C2.10091 11.5823 1.96752 11.5671 1.83374 11.5481C1.76101 11.5353 1.77646 11.5308 1.81737 11.5517L0.983699 13.1681ZM0.127297 12.2208C0.288878 12.6302 0.593487 12.9671 0.984608 13.169L1.81828 11.5526L0.127297 12.2208ZM1.85518e-05 11.1317C1.85518e-05 11.3171 1.85858e-05 11.5017 0.010019 11.6581C0.0209286 11.8235 0.0463843 12.0181 0.128206 12.2217L1.81828 11.5517C1.83465 11.5944 1.82919 11.609 1.82465 11.5362C1.81865 11.4015 1.81653 11.2666 1.81828 11.1317H1.85518e-05ZM1.85518e-05 9.98253V11.1317H1.81828V9.98253H1.85518e-05ZM0.127297 8.89248C0.0588126 9.07304 0.0192337 9.26326 0.010019 9.45615C-0.000890546 9.61252 1.85518e-05 9.79707 1.85518e-05 9.98344H1.81828C1.81828 9.77252 1.81828 9.65888 1.82465 9.57706C1.82919 9.50433 1.83465 9.51888 1.81828 9.5616L0.127297 8.89248ZM0.984608 7.94608C0.593815 8.14752 0.289248 8.48374 0.127297 8.89248L1.81828 9.5616L0.984608 7.94608ZM2.05647 7.7097C1.87101 7.7288 1.68828 7.74607 1.53372 7.77334C1.37008 7.80062 1.17916 7.84607 0.984608 7.94608L1.81828 9.5616C1.77737 9.58251 1.76282 9.57797 1.83465 9.56615C1.96841 9.54678 2.10272 9.53132 2.23739 9.51978L2.05647 7.7097ZM2.92015 7.62425C2.99561 7.56697 3.02924 7.58515 2.85105 7.61697C2.68287 7.64697 2.44467 7.67152 2.05647 7.71061L2.23739 9.51978C2.59468 9.48342 2.91742 9.45251 3.1738 9.40614C3.42017 9.3616 3.74291 9.28341 4.02292 9.06977L2.92015 7.62425ZM2.92015 7.62425L4.02292 9.06977C4.27809 8.8751 4.47718 8.61636 4.59997 8.31984C4.72276 8.02332 4.76488 7.69958 4.72205 7.38151L2.92015 7.62425ZM2.37012 6.9524C2.61741 7.25423 2.76832 7.43969 2.86651 7.58061C2.96924 7.7288 2.93288 7.71789 2.92015 7.62425L4.72205 7.38151C4.67477 7.0324 4.50295 6.74966 4.3593 6.54329C4.21111 6.32964 4.00474 6.07963 3.77746 5.80144L2.37012 6.9524ZM1.77919 6.02781C1.84556 6.23691 1.94829 6.40328 2.04466 6.53874C2.13557 6.66602 2.25285 6.80876 2.37012 6.9524L3.77746 5.80144C3.69048 5.69781 3.6065 5.59261 3.52563 5.48415C3.4829 5.42506 3.49745 5.43233 3.51108 5.47506L1.77919 6.02781ZM1.84283 4.7523C1.66809 5.15579 1.64548 5.60893 1.77919 6.02781L3.51108 5.47506L1.84283 4.7523ZM2.52286 3.89135C2.39103 4.02318 2.26103 4.15227 2.15739 4.27046C2.02787 4.41355 1.92171 4.57616 1.84283 4.7523L3.51108 5.47506C3.4929 5.51688 3.47836 5.52324 3.52654 5.46779C3.58109 5.40597 3.66018 5.32596 3.80837 5.17686L2.52286 3.89135ZM3.33562 3.0795L2.52286 3.89135L3.80837 5.17686L4.62204 4.36501L3.33562 3.0795ZM4.19566 2.39856C4.01945 2.47772 3.85684 2.58418 3.71382 2.71403C3.58403 2.83194 3.4579 2.95382 3.33562 3.0795L4.62204 4.36501C4.77023 4.21591 4.85023 4.13682 4.91206 4.08318C4.9666 4.03409 4.96024 4.04863 4.91842 4.06682L4.19566 2.39856ZM5.47208 2.33492C5.05292 2.20098 4.59942 2.22359 4.19566 2.39856L4.91842 4.06682L5.47208 2.33492ZM6.39485 2.92586C6.25121 2.80858 6.11029 2.69221 5.9821 2.6013C5.82715 2.48626 5.65503 2.39636 5.47208 2.33492L4.91842 4.06682C4.87569 4.05318 4.86751 4.03954 4.92751 4.08136C4.99388 4.12955 5.08206 4.20046 5.2448 4.3341L6.39485 2.92586ZM7.06761 3.47588C7.16125 3.48861 7.17216 3.52497 7.02397 3.42224C6.80935 3.26419 6.60013 3.09894 6.39667 2.92676L5.2448 4.3341C5.52299 4.56138 5.77209 4.76685 5.98574 4.91594C6.1912 5.05868 6.47485 5.2305 6.82396 5.27778L7.06761 3.47588ZM7.06761 3.47588L6.82487 5.27778C7.14302 5.32051 7.46681 5.27825 7.76334 5.15529C8.05987 5.03234 8.31856 4.83307 8.51312 4.57775L7.06761 3.47588ZM7.15397 2.61221C7.11488 3.00131 7.09033 3.23951 7.06033 3.4077C7.02851 3.58498 7.01033 3.55134 7.06761 3.47588L8.51312 4.57775C8.72677 4.29773 8.80496 3.9759 8.8495 3.72953C8.89496 3.47406 8.92769 3.15132 8.96314 2.79312L7.15397 2.61221ZM7.38853 1.54125C7.30244 1.71407 7.24415 1.89938 7.21579 2.09036C7.19034 2.24492 7.17216 2.42765 7.15397 2.61311L8.96314 2.79312C8.97501 2.65852 8.99016 2.52514 9.0086 2.39129C9.02133 2.31856 9.02587 2.33492 9.00496 2.37492L7.38853 1.54125ZM8.33675 0.683938C7.92733 0.845518 7.59042 1.15013 7.38853 1.54125L9.00496 2.37492L8.33675 0.683938ZM9.42589 0.556659C9.24043 0.556659 9.05587 0.556659 8.8995 0.56666C8.70662 0.575874 8.5164 0.615453 8.33584 0.683938L9.00587 2.37492C8.96314 2.39129 8.9486 2.38583 9.02133 2.38129C9.10315 2.37583 9.21679 2.37492 9.4268 2.37492L9.42589 0.556659ZM10.575 0.556659H9.42589V2.37492H10.575V0.556659ZM11.6642 0.683938C11.4836 0.615453 11.2934 0.575874 11.1005 0.56666C10.946 0.55575 10.7614 0.556659 10.5759 0.556659V2.37492C10.786 2.37492 10.8996 2.37492 10.9814 2.38129C11.0541 2.38583 11.0387 2.39129 10.996 2.37492L11.6642 0.683938ZM12.6124 1.54125C12.4105 1.15013 12.0736 0.845518 11.6642 0.683938L10.996 2.37492L12.6124 1.54125ZM12.7279 10.5571C12.7279 11.2805 12.4405 11.9742 11.929 12.4857C11.4175 12.9971 10.7238 13.2845 10.0005 13.2845V15.1028C11.206 15.1028 12.3623 14.6238 13.2147 13.7714C14.0672 12.9189 14.5461 11.7627 14.5461 10.5571H12.7279ZM10.0005 7.82971C10.7238 7.82971 11.4175 8.11706 11.929 8.62854C12.4405 9.14003 12.7279 9.83375 12.7279 10.5571H14.5461C14.5461 9.35152 14.0672 8.19532 13.2147 7.34284C12.3623 6.49036 11.206 6.01145 10.0005 6.01145V7.82971ZM7.27307 10.5571C7.27307 9.83375 7.56042 9.14003 8.0719 8.62854C8.58339 8.11706 9.27711 7.82971 10.0005 7.82971V6.01145C8.79488 6.01145 7.63867 6.49036 6.7862 7.34284C5.93372 8.19532 5.45481 9.35152 5.45481 10.5571H7.27307ZM10.0005 13.2845C9.27711 13.2845 8.58339 12.9971 8.0719 12.4857C7.56042 11.9742 7.27307 11.2805 7.27307 10.5571H5.45481C5.45481 11.7627 5.93372 12.9189 6.7862 13.7714C7.63867 14.6238 8.79488 15.1028 10.0005 15.1028V13.2845Z" fill="#FF4A4A"/>
</svg>
