<svg width="21" height="22" viewBox="0 0 21 22" fill="none" xmlns="http://www.w3.org/2000/svg">
<path d="M1 11.0303C1 12.2744 1.24504 13.5063 1.72114 14.6557C2.19724 15.8051 2.89506 16.8495 3.77478 17.7292C4.65449 18.6089 5.69886 19.3068 6.84826 19.7829C7.99766 20.259 9.22958 20.504 10.4737 20.504C11.7178 20.504 12.9497 20.259 14.0991 19.7829C15.2485 19.3068 16.2929 18.6089 17.1726 17.7292C18.0523 16.8495 18.7501 15.8051 19.2262 14.6557C19.7023 13.5063 19.9474 12.2744 19.9474 11.0303C19.9474 8.51775 18.9493 6.10808 17.1726 4.33142C15.3959 2.55476 12.9863 1.55664 10.4737 1.55664C7.96111 1.55664 5.55144 2.55476 3.77478 4.33142C1.99812 6.10808 1 8.51775 1 11.0303Z" stroke="#FF4A4A" stroke-width="2" stroke-linecap="round" stroke-linejoin="round"/>
<path d="M10.4736 5.76758V11.0307L13.6315 14.1886" stroke="#FF4A4A" stroke-width="2" stroke-linecap="round" stroke-linejoin="round"/>
</svg>
