<svg width="20" height="21" viewBox="0 0 20 21" fill="none" xmlns="http://www.w3.org/2000/svg">
<path d="M14.5 2.55664V3.05664H15H17C17.663 3.05664 18.2989 3.32003 18.7678 3.78887C19.2366 4.25771 19.5 4.8936 19.5 5.55664V17.5566C19.5 18.2197 19.2366 18.8556 18.7678 19.3244C18.2989 19.7932 17.663 20.0566 17 20.0566H3C2.33696 20.0566 1.70107 19.7932 1.23223 19.3244C0.763392 18.8556 0.5 18.2197 0.5 17.5566V5.55664C0.5 4.8936 0.763392 4.25771 1.23223 3.78887C1.70107 3.32003 2.33696 3.05664 3 3.05664H5H5.5V2.55664V1.55664C5.5 1.42403 5.55268 1.29686 5.64645 1.20309C5.74021 1.10932 5.86739 1.05664 6 1.05664C6.13261 1.05664 6.25979 1.10932 6.35355 1.20309C6.44732 1.29686 6.5 1.42403 6.5 1.55664V2.55664V3.05664H7H13H13.5V2.55664V1.55664C13.5 1.42403 13.5527 1.29686 13.6464 1.20309C13.7402 1.10932 13.8674 1.05664 14 1.05664C14.1326 1.05664 14.2598 1.10932 14.3536 1.20309C14.4473 1.29685 14.5 1.42403 14.5 1.55664V2.55664ZM2 10.0566H1.5V10.5566V17.5566C1.5 17.9545 1.65804 18.336 1.93934 18.6173C2.22065 18.8986 2.60218 19.0566 3 19.0566H17C17.3978 19.0566 17.7794 18.8986 18.0607 18.6173C18.342 18.336 18.5 17.9545 18.5 17.5566V10.5566V10.0566H18H2ZM18 9.05664H18.5V8.55664V5.55664C18.5 5.15882 18.342 4.77729 18.0607 4.49598C17.7794 4.21468 17.3978 4.05664 17 4.05664H15H14.5V4.55664V5.55664C14.5 5.68925 14.4473 5.81643 14.3536 5.91019C14.2598 6.00396 14.1326 6.05664 14 6.05664C13.8674 6.05664 13.7402 6.00396 13.6464 5.91019C13.5527 5.81643 13.5 5.68925 13.5 5.55664V4.55664V4.05664H13H7H6.5V4.55664V5.55664C6.5 5.68925 6.44732 5.81643 6.35355 5.91019C6.25978 6.00396 6.13261 6.05664 6 6.05664C5.86739 6.05664 5.74022 6.00396 5.64645 5.91019C5.55268 5.81643 5.5 5.68925 5.5 5.55664V4.55664V4.05664H5H3C2.60217 4.05664 2.22064 4.21468 1.93934 4.49598C1.65804 4.77729 1.5 5.15882 1.5 5.55664V8.55664V9.05664H2H18Z" fill="#FF4A4A" stroke="#959595"/>
</svg>
