<svg width="22" height="11" viewBox="0 0 22 11" fill="none" xmlns="http://www.w3.org/2000/svg">
<path d="M7 5.55664H15M8 1.55664H5C3.93913 1.55664 2.92172 1.97807 2.17157 2.72821C1.42143 3.47836 1 4.49577 1 5.55664C1 6.61751 1.42143 7.63492 2.17157 8.38507C2.92172 9.13521 3.93913 9.55664 5 9.55664H8M14 1.55664H17C18.0609 1.55664 19.0783 1.97807 19.8284 2.72821C20.5786 3.47836 21 4.49577 21 5.55664C21 6.61751 20.5786 7.63492 19.8284 8.38507C19.0783 9.13521 18.0609 9.55664 17 9.55664H14" stroke="#606060" stroke-width="1.3" stroke-linecap="round" stroke-linejoin="round"/>
</svg>
