<svg width="289" height="172" viewBox="0 0 289 172" fill="none" xmlns="http://www.w3.org/2000/svg">
<ellipse cx="60.7485" cy="112.717" rx="16.7485" ry="16.7485" fill="#FF4A4A"/>
<path d="M66.985 49.9688C66.985 68.1859 52.2171 82.9537 34 82.9537C15.7829 82.9537 1.01502 68.1859 1.01502 49.9688C1.01502 31.7516 15.7829 16.9838 34 16.9838C52.2171 16.9838 66.985 31.7516 66.985 49.9688Z" stroke="#FF4A4A" stroke-width="2.03004"/>
<circle cx="266.5" cy="90.4688" r="21.485" stroke="#FF4A4A" stroke-width="2.03004"/>
<path d="M211.633 67.7887C213.35 66.9589 215.321 68.2992 215.181 70.2012L212.818 102.296C212.678 104.198 210.532 105.236 208.955 104.163L182.341 86.0693C180.764 84.9971 180.939 82.6196 182.656 81.7899L211.633 67.7887Z" fill="#FF4A4A"/>
<rect x="137.105" y="113.107" width="49" height="49" rx="1.75" transform="rotate(12.9322 137.105 113.107)" fill="#FF4A4A"/>
<mask id="path-6-inside-1_546_1018" fill="white">
<rect x="161.307" y="0.556641" width="125.257" height="125.257" rx="1.75" transform="rotate(21.8992 161.307 0.556641)"/>
</mask>
<rect x="161.307" y="0.556641" width="125.257" height="125.257" rx="1.75" transform="rotate(21.8992 161.307 0.556641)" stroke="#FF4A4A" stroke-width="4" mask="url(#path-6-inside-1_546_1018)"/>
</svg>
