<svg width="46" height="31" viewBox="0 0 46 31" fill="none" xmlns="http://www.w3.org/2000/svg">
<rect width="46" height="30.1889" rx="9" fill="#C8C8C8"/>
<path d="M21.2692 8.6483V8.98758H24.7308V8.6483C24.7308 8.19838 24.5484 7.76688 24.2238 7.44874C23.8993 7.1306 23.459 6.95187 23 6.95187C22.541 6.95187 22.1007 7.1306 21.7762 7.44874C21.4516 7.76688 21.2692 8.19838 21.2692 8.6483ZM19.8846 8.98758V8.6483C19.8846 7.83844 20.2128 7.06175 20.7971 6.4891C21.3813 5.91644 22.1737 5.59473 23 5.59473C23.8263 5.59473 24.6187 5.91644 25.2029 6.4891C25.7872 7.06175 26.1154 7.83844 26.1154 8.6483V8.98758H31.3077C31.4913 8.98758 31.6674 9.05908 31.7972 9.18633C31.9271 9.31359 32 9.48619 32 9.66615C32 9.84612 31.9271 10.0187 31.7972 10.146C31.6674 10.2732 31.4913 10.3447 31.3077 10.3447H30.2637L28.9538 21.5873C28.8573 22.4153 28.4531 23.1795 27.8186 23.7341C27.184 24.2888 26.3633 24.5951 25.5131 24.5947H20.4869C19.6367 24.5951 18.816 24.2888 18.1814 23.7341C17.5469 23.1795 17.1427 22.4153 17.0462 21.5873L15.7363 10.3447H14.6923C14.5087 10.3447 14.3326 10.2732 14.2028 10.146C14.0729 10.0187 14 9.84612 14 9.66615C14 9.48619 14.0729 9.31359 14.2028 9.18633C14.3326 9.05908 14.5087 8.98758 14.6923 8.98758H19.8846ZM18.4225 21.4326C18.4803 21.9292 18.7225 22.3877 19.1029 22.7206C19.4834 23.0534 19.9755 23.2375 20.4855 23.2376H25.5138C26.0238 23.2375 26.5159 23.0534 26.8964 22.7206C27.2768 22.3877 27.519 21.9292 27.5768 21.4326L28.8708 10.3447H17.1299L18.4225 21.4326ZM20.9231 12.7197C21.1067 12.7197 21.2828 12.7912 21.4126 12.9185C21.5424 13.0457 21.6154 13.2183 21.6154 13.3983V20.184C21.6154 20.364 21.5424 20.5366 21.4126 20.6638C21.2828 20.7911 21.1067 20.8626 20.9231 20.8626C20.7395 20.8626 20.5634 20.7911 20.4335 20.6638C20.3037 20.5366 20.2308 20.364 20.2308 20.184V13.3983C20.2308 13.2183 20.3037 13.0457 20.4335 12.9185C20.5634 12.7912 20.7395 12.7197 20.9231 12.7197ZM25.7692 13.3983C25.7692 13.2183 25.6963 13.0457 25.5665 12.9185C25.4366 12.7912 25.2605 12.7197 25.0769 12.7197C24.8933 12.7197 24.7172 12.7912 24.5874 12.9185C24.4576 13.0457 24.3846 13.2183 24.3846 13.3983V20.184C24.3846 20.364 24.4576 20.5366 24.5874 20.6638C24.7172 20.7911 24.8933 20.8626 25.0769 20.8626C25.2605 20.8626 25.4366 20.7911 25.5665 20.6638C25.6963 20.5366 25.7692 20.364 25.7692 20.184V13.3983Z" fill="white" stroke="white" stroke-width="0.3"/>
</svg>
