<?xml version="1.0" encoding="UTF-8"?>
<svg id="_레이어_1" data-name="레이어 1" xmlns="http://www.w3.org/2000/svg" xmlns:xlink="http://www.w3.org/1999/xlink" viewBox="0 0 407.66 196.21">
  <defs>
    <style>
      .cls-1 {
        stroke-width: 2.74px;
      }

      .cls-1, .cls-2, .cls-3, .cls-4, .cls-5, .cls-6, .cls-7, .cls-8, .cls-9, .cls-10, .cls-11 {
        fill: none;
      }

      .cls-1, .cls-4, .cls-5, .cls-7 {
        stroke: #000;
      }

      .cls-1, .cls-7 {
        stroke-linecap: round;
      }

      .cls-12 {
        mask: url(#mask);
      }

      .cls-2 {
        stroke: url(#_무제_그라디언트_2);
      }

      .cls-2, .cls-3 {
        stroke-miterlimit: 4;
        stroke-width: 4.51px;
      }

      .cls-3 {
        stroke: url(#_무제_그라디언트);
      }

      .cls-13 {
        fill: url(#_무제_그라디언트_11);
      }

      .cls-13, .cls-14, .cls-15, .cls-16, .cls-17, .cls-18 {
        stroke-width: 0px;
      }

      .cls-4, .cls-7 {
        stroke-width: 3.8px;
      }

      .cls-5 {
        stroke-miterlimit: 4;
        stroke-width: 3.8px;
      }

      .cls-14 {
        fill: #000;
      }

      .cls-6 {
        stroke: url(#_무제_그라디언트_5);
        stroke-width: 2.29px;
      }

      .cls-15 {
        fill: url(#_무제_그라디언트_3);
      }

      .cls-16 {
        fill: url(#_무제_그라디언트_7);
      }

      .cls-17 {
        fill: url(#_무제_그라디언트_6);
      }

      .cls-8 {
        stroke: url(#_무제_그라디언트_10);
      }

      .cls-8, .cls-9, .cls-10, .cls-11 {
        stroke-width: 2.03px;
      }

      .cls-18 {
        fill: #fff;
      }

      .cls-9 {
        stroke: url(#_무제_그라디언트_8);
      }

      .cls-10 {
        stroke: url(#_무제_그라디언트_4);
      }

      .cls-11 {
        stroke: url(#_무제_그라디언트_9);
      }

      .cls-19 {
        mask: url(#mask-1);
      }
    </style>
    <mask id="mask" x="211.34" y="4.5" width="186.85" height="186.85" maskUnits="userSpaceOnUse">
      <g id="path-1-inside-1_1812_1388" data-name="path-1-inside-1 1812 1388">
        <rect class="cls-18" x="234.22" y="27.38" width="141.09" height="141.09" rx="1.97" ry="1.97" transform="translate(100.23 344.18) rotate(-68.1)"/>
      </g>
    </mask>
    <linearGradient id="_무제_그라디언트" data-name="무제 그라디언트" x1="358.01" y1="146.48" x2="358.01" y2="5.39" gradientTransform="translate(228.83 -260.08) rotate(90) scale(1 -1)" gradientUnits="userSpaceOnUse">
      <stop offset="0" stop-color="#fea858"/>
      <stop offset="1" stop-color="#fe5884" stop-opacity="0"/>
    </linearGradient>
    <mask id="mask-1" x="220.81" y="0" width="186.85" height="186.85" maskUnits="userSpaceOnUse">
      <g id="path-2-inside-2_1812_1388" data-name="path-2-inside-2 1812 1388">
        <rect class="cls-18" x="243.7" y="22.88" width="141.09" height="141.09" rx="1.97" ry="1.97" transform="translate(110.35 350.14) rotate(-68.1)"/>
      </g>
    </mask>
    <linearGradient id="_무제_그라디언트_2" data-name="무제 그라디언트 2" x1="367.48" y1="150.98" x2="367.48" y2="9.9" gradientTransform="translate(233.8 -274.06) rotate(90) scale(1 -1)" gradientUnits="userSpaceOnUse">
      <stop offset="0" stop-color="#fea858"/>
      <stop offset="1" stop-color="#fe5884" stop-opacity="0"/>
    </linearGradient>
    <linearGradient id="_무제_그라디언트_3" data-name="무제 그라디언트 3" x1="105.75" y1="101.35" x2="105.75" y2="67.85" gradientTransform="translate(0 197.56) scale(1 -1)" gradientUnits="userSpaceOnUse">
      <stop offset="0" stop-color="#ff7a8e"/>
      <stop offset="1" stop-color="#ff4b4d"/>
    </linearGradient>
    <linearGradient id="_무제_그라디언트_4" data-name="무제 그라디언트 4" x1="34" y1="136.35" x2="34" y2="68.35" gradientTransform="translate(0 197.56) scale(1 -1)" gradientUnits="userSpaceOnUse">
      <stop offset="0" stop-color="#fea858"/>
      <stop offset="1" stop-color="#fe5884" stop-opacity="0"/>
    </linearGradient>
    <linearGradient id="_무제_그라디언트_5" data-name="무제 그라디언트 5" x1="370.59" y1="108.7" x2="370.59" y2="58.02" gradientTransform="translate(0 197.56) scale(1 -1)" gradientUnits="userSpaceOnUse">
      <stop offset="0" stop-color="#fea858"/>
      <stop offset="1" stop-color="#fe5884" stop-opacity="0"/>
    </linearGradient>
    <linearGradient id="_무제_그라디언트_6" data-name="무제 그라디언트 6" x1="301.91" y1="109.99" x2="275.44" y2="71.06" gradientTransform="translate(0 197.56) scale(1 -1)" gradientUnits="userSpaceOnUse">
      <stop offset="0" stop-color="#ff7a8e"/>
      <stop offset="1" stop-color="#ff4b4d"/>
    </linearGradient>
    <linearGradient id="_무제_그라디언트_7" data-name="무제 그라디언트 7" x1="258.85" y1="35.24" x2="258.85" y2="-13.76" gradientTransform="translate(231.17 -94.73) rotate(90) scale(1 -1)" gradientUnits="userSpaceOnUse">
      <stop offset="0" stop-color="#ff7a8e"/>
      <stop offset="1" stop-color="#ff4b4d"/>
    </linearGradient>
    <linearGradient id="_무제_그라디언트_8" data-name="무제 그라디언트 8" x1="130" y1="78.35" x2="130" y2="10.35" gradientTransform="translate(0 197.56) scale(1 -1)" gradientUnits="userSpaceOnUse">
      <stop offset="0" stop-color="#fea858"/>
      <stop offset="1" stop-color="#fe5884" stop-opacity="0"/>
    </linearGradient>
    <linearGradient id="_무제_그라디언트_9" data-name="무제 그라디언트 9" x1="130" y1="87.35" x2="130" y2="1.35" gradientTransform="translate(0 197.56) scale(1 -1)" gradientUnits="userSpaceOnUse">
      <stop offset="0" stop-color="#fea858"/>
      <stop offset="1" stop-color="#fe5884" stop-opacity="0"/>
    </linearGradient>
    <linearGradient id="_무제_그라디언트_10" data-name="무제 그라디언트 10" x1="130" y1="68.35" x2="130" y2="20.35" gradientTransform="translate(0 197.56) scale(1 -1)" gradientUnits="userSpaceOnUse">
      <stop offset="0" stop-color="#fea858"/>
      <stop offset="1" stop-color="#fe5884" stop-opacity="0"/>
    </linearGradient>
    <linearGradient id="_무제_그라디언트_11" data-name="무제 그라디언트 11" x1="164.96" y1="214.19" x2="164.96" y2="133.71" gradientTransform="translate(56.86 270.38) rotate(-15.47) scale(1 -1)" gradientUnits="userSpaceOnUse">
      <stop offset="0" stop-color="#feb399"/>
      <stop offset=".72" stop-color="#ff5285"/>
      <stop offset=".94" stop-color="#ff4a4a"/>
    </linearGradient>
  </defs>
  <g class="cls-12">
    <rect class="cls-3" x="234.22" y="27.38" width="141.09" height="141.09" rx="1.97" ry="1.97" transform="translate(100.23 344.18) rotate(-68.1)"/>
  </g>
  <g class="cls-19">
    <rect class="cls-2" x="243.7" y="22.88" width="141.09" height="141.09" rx="1.97" ry="1.97" transform="translate(110.35 350.14) rotate(-68.1)"/>
  </g>
  <circle class="cls-15" cx="105.75" cy="112.96" r="16.75"/>
  <path class="cls-10" d="M66.99,95.21c0,18.22-14.77,32.98-32.99,32.98S1.02,113.42,1.02,95.21s14.77-32.98,32.98-32.98,32.99,14.77,32.99,32.98Z"/>
  <circle class="cls-6" cx="370.59" cy="114.2" r="24.2"/>
  <path class="cls-17" d="M298.05,89.44c1.72-.83,3.69.51,3.55,2.41l-2.36,32.1c-.14,1.9-2.29,2.94-3.86,1.87l-26.61-18.09c-1.58-1.07-1.4-3.45.32-4.28l28.98-14Z"/>
  <rect class="cls-16" x="217.41" y="139.62" width="49" height="49" rx="1.75" ry="1.75" transform="translate(27.82 363.17) rotate(-77.07)"/>
  <path class="cls-9" d="M162.99,153.21c0,18.22-14.77,32.99-32.99,32.99s-32.99-14.77-32.99-32.99,14.77-32.99,32.99-32.99,32.99,14.77,32.99,32.99Z"/>
  <circle class="cls-11" cx="130" cy="153.21" r="41.99"/>
  <circle class="cls-8" cx="130" cy="153.21" r="22.99"/>
  <path class="cls-1" d="M156.91,12.39l3.82,13.79"/>
  <path class="cls-1" d="M144.75,17.62l10.17,10"/>
  <path class="cls-1" d="M170.03,10.62l-3.58,13.81"/>
  <circle class="cls-13" cx="169.43" cy="58.73" r="40.24"/>
  <circle class="cls-5" cx="141.04" cy="53.73" r="19.41"/>
  <path class="cls-4" d="M210.88,34.05c2.8,10.13-3.26,20.69-13.62,23.56-10.36,2.87-20.99-3.08-23.8-13.2-2.8-10.13,3.26-20.69,13.62-23.56,10.36-2.87,20.99,3.08,23.8,13.2Z"/>
  <path class="cls-7" d="M172.55,43.32c-.19-.7-3.18-.48-6.67.49-3.49.97-6.17,2.32-5.97,3.02"/>
  <circle class="cls-14" cx="153.46" cy="53.56" r="2.98"/>
  <circle class="cls-14" cx="181.04" cy="45.92" r="2.98"/>
  <circle class="cls-18" cx="168.2" cy="53.19" r="1.79"/>
</svg>