<svg width="316" height="75" viewBox="0 0 316 75" fill="none" xmlns="http://www.w3.org/2000/svg">
<path d="M307.223 74.545C302.983 74.545 299.522 71.0831 299.609 66.9287C299.522 62.6879 302.983 59.3125 307.223 59.3125C311.289 59.3125 314.837 62.6879 314.837 66.9287C314.837 71.0831 311.289 74.545 307.223 74.545Z" fill="#FF4A4A"/>
<path d="M291.376 27.8086V38.3675H282.584V59.3122C282.584 62.1683 284.141 63.0338 286.613 63.1203C287.895 63.2069 290.368 63.0338 292.108 62.9472V73.8523C290.551 74.0254 288.079 74.2851 284.599 74.3716C273.884 74.2851 267.473 70.2173 267.565 60.8701V38.3675H261.154V27.8086H267.565V16.7305H282.584V27.8086H291.376Z" fill="#303030"/>
<path d="M291.376 27.8086V38.3675H282.584V59.3122C282.584 62.1683 284.141 63.0338 286.613 63.1203C287.895 63.2069 290.368 63.0338 292.108 62.9472V73.8523C290.551 74.0254 288.079 74.2851 284.599 74.3716C273.884 74.2851 267.473 70.2173 267.565 60.8701V38.3675H261.154V27.8086H267.565V16.7305H282.584V27.8086H291.376Z" fill="black" fill-opacity="0.2"/>
<path d="M291.376 27.8086V38.3675H282.584V59.3122C282.584 62.1683 284.141 63.0338 286.613 63.1203C287.895 63.2069 290.368 63.0338 292.108 62.9472V73.8523C290.551 74.0254 288.079 74.2851 284.599 74.3716C273.884 74.2851 267.473 70.2173 267.565 60.8701V38.3675H261.154V27.8086H267.565V16.7305H282.584V27.8086H291.376Z" fill="black" fill-opacity="0.2"/>
<path d="M232.065 74.5515C216.954 74.5515 207.704 65.0312 207.704 50.8373C207.704 36.7299 216.954 27.2096 232.065 27.123C247.359 27.2096 256.608 36.7299 256.608 50.8373C256.608 65.0312 247.359 74.5515 232.065 74.5515ZM223.09 50.8373C223.09 58.4535 226.295 63.733 232.248 63.8195C238.017 63.733 241.223 58.4535 241.223 50.8373C241.223 43.1345 238.017 37.7685 232.248 37.855C226.295 37.7685 223.09 43.1345 223.09 50.8373Z" fill="#303030"/>
<path d="M232.065 74.5515C216.954 74.5515 207.704 65.0312 207.704 50.8373C207.704 36.7299 216.954 27.2096 232.065 27.123C247.359 27.2096 256.608 36.7299 256.608 50.8373C256.608 65.0312 247.359 74.5515 232.065 74.5515ZM223.09 50.8373C223.09 58.4535 226.295 63.733 232.248 63.8195C238.017 63.733 241.223 58.4535 241.223 50.8373C241.223 43.1345 238.017 37.7685 232.248 37.855C226.295 37.7685 223.09 43.1345 223.09 50.8373Z" fill="black" fill-opacity="0.2"/>
<path d="M232.065 74.5515C216.954 74.5515 207.704 65.0312 207.704 50.8373C207.704 36.7299 216.954 27.2096 232.065 27.123C247.359 27.2096 256.608 36.7299 256.608 50.8373C256.608 65.0312 247.359 74.5515 232.065 74.5515ZM223.09 50.8373C223.09 58.4535 226.295 63.733 232.248 63.8195C238.017 63.733 241.223 58.4535 241.223 50.8373C241.223 43.1345 238.017 37.7685 232.248 37.855C226.295 37.7685 223.09 43.1345 223.09 50.8373Z" fill="black" fill-opacity="0.2"/>
<path d="M170.69 74.3758C159.975 74.3758 151.275 66.3268 151.275 50.8346C151.275 34.6501 160.433 27.207 170.69 27.1204C178.474 27.207 182.596 31.5344 184.427 35.6021H184.793V12.4072H199.813V73.6834H184.977V66.2402H184.427C182.504 70.3945 178.2 74.3758 170.69 74.3758ZM166.844 50.6615C166.752 58.2778 170.049 63.211 176.002 63.1245C181.68 63.211 185.16 58.2778 185.16 50.6615C185.16 43.0453 181.771 38.3717 176.002 38.3717C169.957 38.3717 166.752 43.2184 166.844 50.6615Z" fill="#303030"/>
<path d="M170.69 74.3758C159.975 74.3758 151.275 66.3268 151.275 50.8346C151.275 34.6501 160.433 27.207 170.69 27.1204C178.474 27.207 182.596 31.5344 184.427 35.6021H184.793V12.4072H199.813V73.6834H184.977V66.2402H184.427C182.504 70.3945 178.2 74.3758 170.69 74.3758ZM166.844 50.6615C166.752 58.2778 170.049 63.211 176.002 63.1245C181.68 63.211 185.16 58.2778 185.16 50.6615C185.16 43.0453 181.771 38.3717 176.002 38.3717C169.957 38.3717 166.752 43.2184 166.844 50.6615Z" fill="black" fill-opacity="0.2"/>
<path d="M170.69 74.3758C159.975 74.3758 151.275 66.3268 151.275 50.8346C151.275 34.6501 160.433 27.207 170.69 27.1204C178.474 27.207 182.596 31.5344 184.427 35.6021H184.793V12.4072H199.813V73.6834H184.977V66.2402H184.427C182.504 70.3945 178.2 74.3758 170.69 74.3758ZM166.844 50.6615C166.752 58.2778 170.049 63.211 176.002 63.1245C181.68 63.211 185.16 58.2778 185.16 50.6615C185.16 43.0453 181.771 38.3717 176.002 38.3717C169.957 38.3717 166.752 43.2184 166.844 50.6615Z" fill="black" fill-opacity="0.2"/>
<path d="M91.7494 47.3753V73.686H76.5471V27.8154H91.0168V36.1241H91.5663C93.6726 30.585 99.0758 27.2096 106.219 27.123C116.476 27.2096 123.07 34.0469 123.07 44.4327V73.686H108.051V47.2022C108.051 42.0094 105.029 38.8936 99.9916 38.8936C95.0463 38.8936 91.7494 42.0959 91.7494 47.3753Z" fill="#303030"/>
<path d="M91.7494 47.3753V73.686H76.5471V27.8154H91.0168V36.1241H91.5663C93.6726 30.585 99.0758 27.2096 106.219 27.123C116.476 27.2096 123.07 34.0469 123.07 44.4327V73.686H108.051V47.2022C108.051 42.0094 105.029 38.8936 99.9916 38.8936C95.0463 38.8936 91.7494 42.0959 91.7494 47.3753Z" fill="black" fill-opacity="0.2"/>
<path d="M91.7494 47.3753V73.686H76.5471V27.8154H91.0168V36.1241H91.5663C93.6726 30.585 99.0758 27.2096 106.219 27.123C116.476 27.2096 123.07 34.0469 123.07 44.4327V73.686H108.051V47.2022C108.051 42.0094 105.029 38.8936 99.9916 38.8936C95.0463 38.8936 91.7494 42.0959 91.7494 47.3753Z" fill="black" fill-opacity="0.2"/>
<ellipse cx="33.6188" cy="69.5899" rx="28.6188" ry="5.40927" fill="#FF4A4A"/>
<path d="M33.2947 0.957031V10.8167" stroke="black" stroke-width="1.88966" stroke-linecap="round"/>
<path d="M24.2561 2.19043L29.1713 10.7038" stroke="black" stroke-width="1.88966" stroke-linecap="round"/>
<path d="M42.3323 2.1875L37.4171 10.7008" stroke="black" stroke-width="1.88966" stroke-linecap="round"/>
<circle cx="33.0865" cy="34.0252" r="27.7303" fill="url(#paint0_linear_1718_1971)"/>
<circle cx="15.1544" cy="25.492" r="13.3766" stroke="black" stroke-width="2.62149"/>
<path d="M65.1547 25.2589C65.1547 32.4981 59.1857 38.4023 51.7781 38.4023C44.3706 38.4023 38.4016 32.4981 38.4016 25.2589C38.4016 18.0196 44.3706 12.1154 51.7781 12.1154C59.1857 12.1154 65.1547 18.0196 65.1547 25.2589Z" stroke="black" stroke-width="2.62149"/>
<path d="M37.9926 24.3701C37.9926 23.8707 35.9684 23.4658 33.4713 23.4658C30.9742 23.4658 28.95 23.8707 28.95 24.3701" stroke="black" stroke-width="2.62149" stroke-linecap="round"/>
<circle cx="23.4318" cy="27.6557" r="2.0541" fill="black"/>
<circle cx="43.1515" cy="27.6557" r="2.0541" fill="black"/>
<circle cx="33.2918" cy="30.1231" r="1.23246" fill="white"/>
<path d="M36.2276 34.5962C36.2276 36.1072 34.8496 37.332 33.1498 37.332C31.45 37.332 30.072 36.1072 30.072 34.5962" stroke="black" stroke-width="1.3679" stroke-linecap="round"/>
<defs>
<linearGradient id="paint0_linear_1718_1971" x1="33.0865" y1="6.29492" x2="33.0865" y2="61.7555" gradientUnits="userSpaceOnUse">
<stop stop-color="#FEB399"/>
<stop offset="0.721348" stop-color="#FF5285"/>
<stop offset="0.943725" stop-color="#FF4A4A"/>
</linearGradient>
</defs>
</svg>
