<svg width="46" height="30" viewBox="0 0 46 30" fill="none" xmlns="http://www.w3.org/2000/svg">
<rect x="1" y="1" width="44" height="28" rx="8" fill="white"/>
<rect x="1" y="1" width="44" height="28" rx="8" stroke="#FF4A4A" stroke-width="2"/>
<path d="M17.6875 13.7291C17.6046 13.7291 17.5251 13.7609 17.4665 13.8176C17.4079 13.8742 17.375 13.9511 17.375 14.0312V21.8854C17.375 22.0522 17.515 22.1875 17.6875 22.1875H28.3125C28.3954 22.1875 28.4749 22.1557 28.5335 22.099C28.5921 22.0424 28.625 21.9655 28.625 21.8854V14.0312C28.625 13.9511 28.5921 13.8742 28.5335 13.8176C28.4749 13.7609 28.3954 13.7291 28.3125 13.7291H27.0625C26.8139 13.7291 26.5754 13.6336 26.3996 13.4637C26.2238 13.2937 26.125 13.0632 26.125 12.8228C26.125 12.5825 26.2238 12.352 26.3996 12.182C26.5754 12.0121 26.8139 11.9166 27.0625 11.9166H28.3125C29.52 11.9166 30.5 12.8639 30.5 14.0312V21.8854C30.5 22.4462 30.2695 22.9841 29.8593 23.3806C29.4491 23.7772 28.8927 24 28.3125 24H17.6875C17.1073 24 16.5509 23.7772 16.1407 23.3806C15.7305 22.9841 15.5 22.4462 15.5 21.8854V14.0312C15.5 12.8639 16.48 11.9166 17.6875 11.9166H18.9375C19.1861 11.9166 19.4246 12.0121 19.6004 12.182C19.7762 12.352 19.875 12.5825 19.875 12.8228C19.875 13.0632 19.7762 13.2937 19.6004 13.4637C19.4246 13.6336 19.1861 13.7291 18.9375 13.7291H17.6875ZM22.7787 6.08875C22.8078 6.06062 22.8423 6.0383 22.8802 6.02307C22.9182 6.00784 22.9589 6 23 6C23.0411 6 23.0818 6.00784 23.1198 6.02307C23.1577 6.0383 23.1922 6.06062 23.2213 6.08875L26.8412 9.58811C26.8851 9.63036 26.9149 9.68423 26.927 9.7429C26.9391 9.80157 26.9329 9.86239 26.9092 9.91766C26.8855 9.97293 26.8454 10.0201 26.7939 10.0533C26.7424 10.0865 26.6819 10.1042 26.62 10.1041H23.9375V17.052C23.9375 17.2924 23.8387 17.5229 23.6629 17.6929C23.4871 17.8628 23.2486 17.9583 23 17.9583C22.7514 17.9583 22.5129 17.8628 22.3371 17.6929C22.1613 17.5229 22.0625 17.2924 22.0625 17.052V10.1041H19.38C19.3181 10.1042 19.2576 10.0865 19.2061 10.0533C19.1546 10.0201 19.1145 9.97293 19.0908 9.91766C19.0671 9.86239 19.0609 9.80157 19.073 9.7429C19.0851 9.68423 19.1149 9.63036 19.1588 9.58811L22.7787 6.08875Z" fill="#FF4A4A"/>
</svg>
