<svg width="406" height="197" viewBox="0 0 406 197" fill="none" xmlns="http://www.w3.org/2000/svg">
<mask id="path-1-inside-1_1716_1646" fill="white">
<rect x="265.623" y="6.61328" width="141.085" height="141.085" rx="1.97114" transform="rotate(21.8992 265.623 6.61328)"/>
</mask>
<rect x="265.623" y="6.61328" width="141.085" height="141.085" rx="1.97114" transform="rotate(21.8992 265.623 6.61328)" stroke="url(#paint0_linear_1716_1646)" stroke-width="4.50547" mask="url(#path-1-inside-1_1716_1646)"/>
<mask id="path-2-inside-2_1716_1646" fill="white">
<rect x="275.096" y="2.10938" width="141.085" height="141.085" rx="1.97114" transform="rotate(21.8992 275.096 2.10938)"/>
</mask>
<rect x="275.096" y="2.10938" width="141.085" height="141.085" rx="1.97114" transform="rotate(21.8992 275.096 2.10938)" stroke="url(#paint1_linear_1716_1646)" stroke-width="4.50547" mask="url(#path-2-inside-2_1716_1646)"/>
<ellipse cx="105.748" cy="113.405" rx="16.7485" ry="16.7485" fill="url(#paint2_linear_1716_1646)"/>
<path d="M66.985 95.6562C66.985 113.873 52.2171 128.641 34 128.641C15.7829 128.641 1.01502 113.873 1.01502 95.6562C1.01502 77.4391 15.7829 62.6713 34 62.6713C52.2171 62.6713 66.985 77.4391 66.985 95.6562Z" stroke="url(#paint3_linear_1716_1646)" stroke-width="2.03004"/>
<circle cx="370.589" cy="114.646" r="24.2" stroke="url(#paint4_linear_1716_1646)" stroke-width="2.28657"/>
<path d="M298.045 89.8883C299.762 89.0586 301.733 90.3989 301.593 92.3008L299.23 124.396C299.09 126.298 296.944 127.335 295.367 126.263L268.753 108.169C267.176 107.097 267.351 104.719 269.068 103.89L298.045 89.8883Z" fill="url(#paint5_linear_1716_1646)"/>
<rect x="223.516" y="135.207" width="49" height="49" rx="1.75" transform="rotate(12.9322 223.516 135.207)" fill="url(#paint6_linear_1716_1646)"/>
<path d="M162.985 153.656C162.985 171.873 148.217 186.641 130 186.641C111.783 186.641 97.015 171.873 97.015 153.656C97.015 135.439 111.783 120.671 130 120.671C148.217 120.671 162.985 135.439 162.985 153.656Z" stroke="url(#paint7_linear_1716_1646)" stroke-width="2.03004"/>
<circle cx="130" cy="153.656" r="41.985" stroke="url(#paint8_linear_1716_1646)" stroke-width="2.03004"/>
<circle cx="130" cy="153.656" r="22.985" stroke="url(#paint9_linear_1716_1646)" stroke-width="2.03004"/>
<path d="M156.915 12.8438L160.732 26.634" stroke="black" stroke-width="2.74239" stroke-linecap="round"/>
<path d="M144.75 18.0684L154.921 28.0724" stroke="black" stroke-width="2.74239" stroke-linecap="round"/>
<path d="M170.032 11.0674L166.454 24.8778" stroke="black" stroke-width="2.74239" stroke-linecap="round"/>
<circle cx="169.428" cy="59.1748" r="40.2439" transform="rotate(-15.4741 169.428 59.1748)" fill="url(#paint10_linear_1716_1646)"/>
<circle cx="141.042" cy="54.1827" r="19.4129" transform="rotate(-15.4741 141.042 54.1827)" stroke="black" stroke-width="3.80447"/>
<path d="M210.885 34.4965C213.688 44.6217 207.626 55.1908 197.265 58.059C186.904 60.9272 176.27 54.9805 173.467 44.8554C170.664 34.7302 176.726 24.161 187.087 21.2928C197.447 18.4246 208.082 24.3714 210.885 34.4965Z" stroke="black" stroke-width="3.80447"/>
<path d="M172.551 43.7693C172.357 43.0708 169.369 43.2883 165.877 44.2552C162.384 45.2221 159.71 46.5721 159.903 47.2706" stroke="black" stroke-width="3.80447" stroke-linecap="round"/>
<circle cx="153.458" cy="54.0063" r="2.98103" transform="rotate(-15.4741 153.458 54.0063)" fill="black"/>
<circle cx="181.039" cy="46.3716" r="2.98103" transform="rotate(-15.4741 181.039 46.3716)" fill="black"/>
<circle cx="168.203" cy="53.6352" r="1.78862" transform="rotate(-15.4741 168.203 53.6352)" fill="white"/>
<defs>
<linearGradient id="paint0_linear_1716_1646" x1="336.166" y1="6.61328" x2="336.166" y2="147.699" gradientUnits="userSpaceOnUse">
<stop stop-color="#FEA858"/>
<stop offset="1" stop-color="#FE5884" stop-opacity="0"/>
</linearGradient>
<linearGradient id="paint1_linear_1716_1646" x1="345.638" y1="2.10937" x2="345.638" y2="143.195" gradientUnits="userSpaceOnUse">
<stop stop-color="#FEA858"/>
<stop offset="1" stop-color="#FE5884" stop-opacity="0"/>
</linearGradient>
<linearGradient id="paint2_linear_1716_1646" x1="105.748" y1="96.6562" x2="105.748" y2="130.153" gradientUnits="userSpaceOnUse">
<stop stop-color="#FF7A8E"/>
<stop offset="1" stop-color="#FF4B4D"/>
</linearGradient>
<linearGradient id="paint3_linear_1716_1646" x1="34" y1="61.6562" x2="34" y2="129.656" gradientUnits="userSpaceOnUse">
<stop stop-color="#FEA858"/>
<stop offset="1" stop-color="#FE5884" stop-opacity="0"/>
</linearGradient>
<linearGradient id="paint4_linear_1716_1646" x1="370.589" y1="89.3027" x2="370.589" y2="139.989" gradientUnits="userSpaceOnUse">
<stop stop-color="#FEA858"/>
<stop offset="1" stop-color="#FE5884" stop-opacity="0"/>
</linearGradient>
<linearGradient id="paint5_linear_1716_1646" x1="301.908" y1="88.0214" x2="275.444" y2="126.947" gradientUnits="userSpaceOnUse">
<stop stop-color="#FF7A8E"/>
<stop offset="1" stop-color="#FF4B4D"/>
</linearGradient>
<linearGradient id="paint6_linear_1716_1646" x1="248.016" y1="135.207" x2="248.016" y2="184.207" gradientUnits="userSpaceOnUse">
<stop stop-color="#FF7A8E"/>
<stop offset="1" stop-color="#FF4B4D"/>
</linearGradient>
<linearGradient id="paint7_linear_1716_1646" x1="130" y1="119.656" x2="130" y2="187.656" gradientUnits="userSpaceOnUse">
<stop stop-color="#FEA858"/>
<stop offset="1" stop-color="#FE5884" stop-opacity="0"/>
</linearGradient>
<linearGradient id="paint8_linear_1716_1646" x1="130" y1="110.656" x2="130" y2="196.656" gradientUnits="userSpaceOnUse">
<stop stop-color="#FEA858"/>
<stop offset="1" stop-color="#FE5884" stop-opacity="0"/>
</linearGradient>
<linearGradient id="paint9_linear_1716_1646" x1="130" y1="129.656" x2="130" y2="177.656" gradientUnits="userSpaceOnUse">
<stop stop-color="#FEA858"/>
<stop offset="1" stop-color="#FE5884" stop-opacity="0"/>
</linearGradient>
<linearGradient id="paint10_linear_1716_1646" x1="169.428" y1="18.931" x2="169.428" y2="99.4187" gradientUnits="userSpaceOnUse">
<stop stop-color="#FEB399"/>
<stop offset="0.721348" stop-color="#FF5285"/>
<stop offset="0.943725" stop-color="#FF4A4A"/>
</linearGradient>
</defs>
</svg>
