<svg width="95" height="22" viewBox="0 0 95 22" fill="none" xmlns="http://www.w3.org/2000/svg">
<path d="M92.402 21.6513C91.1048 21.6513 90.0458 20.5928 90.0723 19.3227C90.0458 18.0261 91.1048 16.9941 92.402 16.9941C93.6463 16.9941 94.7318 18.0261 94.7318 19.3227C94.7318 20.5928 93.6463 21.6513 92.402 21.6513Z" fill="#FF4A4A"/>
<path d="M87.5555 7.36258V10.5908H84.8675V16.9944C84.8675 17.8676 85.3435 18.1322 86.0995 18.1586C86.4915 18.1851 87.2475 18.1322 87.7794 18.1057V21.4398C87.3035 21.4927 86.5475 21.5721 85.4835 21.5985C82.2076 21.5721 80.2476 20.3284 80.2756 17.4706V10.5908H78.3157V7.36258H80.2756V3.97559H84.8675V7.36258H87.5555Z" fill="#303030"/>
<path d="M87.5555 7.36258V10.5908H84.8675V16.9944C84.8675 17.8676 85.3435 18.1322 86.0995 18.1586C86.4915 18.1851 87.2475 18.1322 87.7794 18.1057V21.4398C87.3035 21.4927 86.5475 21.5721 85.4835 21.5985C82.2076 21.5721 80.2476 20.3284 80.2756 17.4706V10.5908H78.3157V7.36258H80.2756V3.97559H84.8675V7.36258H87.5555Z" fill="black" fill-opacity="0.2"/>
<path d="M87.5555 7.36258V10.5908H84.8675V16.9944C84.8675 17.8676 85.3435 18.1322 86.0995 18.1586C86.4915 18.1851 87.2475 18.1322 87.7794 18.1057V21.4398C87.3035 21.4927 86.5475 21.5721 85.4835 21.5985C82.2076 21.5721 80.2476 20.3284 80.2756 17.4706V10.5908H78.3157V7.36258H80.2756V3.97559H84.8675V7.36258H87.5555Z" fill="black" fill-opacity="0.2"/>
<path d="M69.4219 21.6529C64.8021 21.6529 61.9741 18.7422 61.9741 14.4026C61.9741 10.0895 64.8021 7.17881 69.4219 7.15234C74.0978 7.17881 76.9258 10.0895 76.9258 14.4026C76.9258 18.7422 74.0978 21.6529 69.4219 21.6529ZM66.678 14.4026C66.678 16.7312 67.658 18.3453 69.4779 18.3718C71.2419 18.3453 72.2219 16.7312 72.2219 14.4026C72.2219 12.0476 71.2419 10.407 69.4779 10.4335C67.658 10.407 66.678 12.0476 66.678 14.4026Z" fill="#303030"/>
<path d="M69.4219 21.6529C64.8021 21.6529 61.9741 18.7422 61.9741 14.4026C61.9741 10.0895 64.8021 7.17881 69.4219 7.15234C74.0978 7.17881 76.9258 10.0895 76.9258 14.4026C76.9258 18.7422 74.0978 21.6529 69.4219 21.6529ZM66.678 14.4026C66.678 16.7312 67.658 18.3453 69.4779 18.3718C71.2419 18.3453 72.2219 16.7312 72.2219 14.4026C72.2219 12.0476 71.2419 10.407 69.4779 10.4335C67.658 10.407 66.678 12.0476 66.678 14.4026Z" fill="black" fill-opacity="0.2"/>
<path d="M69.4219 21.6529C64.8021 21.6529 61.9741 18.7422 61.9741 14.4026C61.9741 10.0895 64.8021 7.17881 69.4219 7.15234C74.0978 7.17881 76.9258 10.0895 76.9258 14.4026C76.9258 18.7422 74.0978 21.6529 69.4219 21.6529ZM66.678 14.4026C66.678 16.7312 67.658 18.3453 69.4779 18.3718C71.2419 18.3453 72.2219 16.7312 72.2219 14.4026C72.2219 12.0476 71.2419 10.407 69.4779 10.4335C67.658 10.407 66.678 12.0476 66.678 14.4026Z" fill="black" fill-opacity="0.2"/>
<path d="M50.6573 21.5993C47.3814 21.5993 44.7214 19.1385 44.7214 14.402C44.7214 9.45377 47.5214 7.17813 50.6573 7.15167C53.0372 7.17813 54.2972 8.50118 54.8572 9.74484H54.9692V2.65332H59.5611V21.3876H55.0252V19.112H54.8572C54.2692 20.3821 52.9532 21.5993 50.6573 21.5993ZM49.4813 14.349C49.4533 16.6776 50.4613 18.1859 52.2813 18.1594C54.0172 18.1859 55.0812 16.6776 55.0812 14.349C55.0812 12.0205 54.0452 10.5916 52.2813 10.5916C50.4333 10.5916 49.4533 12.0734 49.4813 14.349Z" fill="#303030"/>
<path d="M50.6573 21.5993C47.3814 21.5993 44.7214 19.1385 44.7214 14.402C44.7214 9.45377 47.5214 7.17813 50.6573 7.15167C53.0372 7.17813 54.2972 8.50118 54.8572 9.74484H54.9692V2.65332H59.5611V21.3876H55.0252V19.112H54.8572C54.2692 20.3821 52.9532 21.5993 50.6573 21.5993ZM49.4813 14.349C49.4533 16.6776 50.4613 18.1859 52.2813 18.1594C54.0172 18.1859 55.0812 16.6776 55.0812 14.349C55.0812 12.0205 54.0452 10.5916 52.2813 10.5916C50.4333 10.5916 49.4533 12.0734 49.4813 14.349Z" fill="black" fill-opacity="0.2"/>
<path d="M50.6573 21.5993C47.3814 21.5993 44.7214 19.1385 44.7214 14.402C44.7214 9.45377 47.5214 7.17813 50.6573 7.15167C53.0372 7.17813 54.2972 8.50118 54.8572 9.74484H54.9692V2.65332H59.5611V21.3876H55.0252V19.112H54.8572C54.2692 20.3821 52.9532 21.5993 50.6573 21.5993ZM49.4813 14.349C49.4533 16.6776 50.4613 18.1859 52.2813 18.1594C54.0172 18.1859 55.0812 16.6776 55.0812 14.349C55.0812 12.0205 54.0452 10.5916 52.2813 10.5916C50.4333 10.5916 49.4533 12.0734 49.4813 14.349Z" fill="black" fill-opacity="0.2"/>
<path d="M26.5224 13.3442V21.3883H21.8745V7.36403H26.2984V9.90428H26.4664C27.1104 8.21078 28.7623 7.17881 30.9463 7.15234C34.0822 7.17881 36.0982 9.26922 36.0982 12.4445V21.3883H31.5063V13.2913C31.5063 11.7036 30.5823 10.751 29.0423 10.751C27.5304 10.751 26.5224 11.7301 26.5224 13.3442Z" fill="#303030"/>
<path d="M26.5224 13.3442V21.3883H21.8745V7.36403H26.2984V9.90428H26.4664C27.1104 8.21078 28.7623 7.17881 30.9463 7.15234C34.0822 7.17881 36.0982 9.26922 36.0982 12.4445V21.3883H31.5063V13.2913C31.5063 11.7036 30.5823 10.751 29.0423 10.751C27.5304 10.751 26.5224 11.7301 26.5224 13.3442Z" fill="black" fill-opacity="0.2"/>
<path d="M26.5224 13.3442V21.3883H21.8745V7.36403H26.2984V9.90428H26.4664C27.1104 8.21078 28.7623 7.17881 30.9463 7.15234C34.0822 7.17881 36.0982 9.26922 36.0982 12.4445V21.3883H31.5063V13.2913C31.5063 11.7036 30.5823 10.751 29.0423 10.751C27.5304 10.751 26.5224 11.7301 26.5224 13.3442Z" fill="black" fill-opacity="0.2"/>
<ellipse cx="8.74979" cy="8.75" rx="8.74979" ry="8.75" fill="#FF4A4A"/>
<ellipse cx="8.74979" cy="20.1362" rx="8.74979" ry="1.65381" fill="#FF4A4A"/>
</svg>
