<svg xmlns="http://www.w3.org/2000/svg" width="119" height="28" viewBox="0 0 119 28" fill="none">
  <path d="M115.913 27.372C114.195 27.372 112.792 25.9691 112.827 24.2856C112.792 22.5671 114.195 21.1992 115.913 21.1992C117.562 21.1992 119 22.5671 119 24.2856C119 25.9691 117.562 27.372 115.913 27.372Z" fill="#FF4A4A"/>
  <path d="M109.675 8.43268V12.7116H106.308V21.1992C106.308 22.3566 106.904 22.7073 107.851 22.7424C108.342 22.7775 109.289 22.7073 109.955 22.6723V27.0914C109.359 27.1616 108.412 27.2668 107.079 27.3019C102.976 27.2668 100.521 25.6184 100.556 21.8305V12.7116H98.1008V8.43268H100.556V3.94336H106.308V8.43268H109.675Z" fill="#303030"/>
  <path d="M109.675 8.43268V12.7116H106.308V21.1992C106.308 22.3566 106.904 22.7073 107.851 22.7424C108.342 22.7775 109.289 22.7073 109.955 22.6723V27.0914C109.359 27.1616 108.412 27.2668 107.079 27.3019C102.976 27.2668 100.521 25.6184 100.556 21.8305V12.7116H98.1008V8.43268H100.556V3.94336H106.308V8.43268H109.675Z" fill="black" fill-opacity="0.2"/>
  <path d="M109.675 8.43268V12.7116H106.308V21.1992C106.308 22.3566 106.904 22.7073 107.851 22.7424C108.342 22.7775 109.289 22.7073 109.955 22.6723V27.0914C109.359 27.1616 108.412 27.2668 107.079 27.3019C102.976 27.2668 100.521 25.6184 100.556 21.8305V12.7116H98.1008V8.43268H100.556V3.94336H106.308V8.43268H109.675Z" fill="black" fill-opacity="0.2"/>
  <path d="M86.9595 27.3742C81.1725 27.3742 77.6301 23.5162 77.6301 17.7643C77.6301 12.0474 81.1725 8.18937 86.9595 8.1543C92.8167 8.18937 96.359 12.0474 96.359 17.7643C96.359 23.5162 92.8167 27.3742 86.9595 27.3742ZM83.5224 17.7643C83.5224 20.8507 84.7499 22.9901 87.0296 23.0252C89.2392 22.9901 90.4668 20.8507 90.4668 17.7643C90.4668 14.6428 89.2392 12.4683 87.0296 12.5033C84.7499 12.4683 83.5224 14.6428 83.5224 17.7643Z" fill="#303030"/>
  <path d="M86.9595 27.3742C81.1725 27.3742 77.6301 23.5162 77.6301 17.7643C77.6301 12.0474 81.1725 8.18937 86.9595 8.1543C92.8167 8.18937 96.359 12.0474 96.359 17.7643C96.359 23.5162 92.8167 27.3742 86.9595 27.3742ZM83.5224 17.7643C83.5224 20.8507 84.7499 22.9901 87.0296 23.0252C89.2392 22.9901 90.4668 20.8507 90.4668 17.7643C90.4668 14.6428 89.2392 12.4683 87.0296 12.5033C84.7499 12.4683 83.5224 14.6428 83.5224 17.7643Z" fill="black" fill-opacity="0.2"/>
  <path d="M86.9595 27.3742C81.1725 27.3742 77.6301 23.5162 77.6301 17.7643C77.6301 12.0474 81.1725 8.18937 86.9595 8.1543C92.8167 8.18937 96.359 12.0474 96.359 17.7643C96.359 23.5162 92.8167 27.3742 86.9595 27.3742ZM83.5224 17.7643C83.5224 20.8507 84.7499 22.9901 87.0296 23.0252C89.2392 22.9901 90.4668 20.8507 90.4668 17.7643C90.4668 14.6428 89.2392 12.4683 87.0296 12.5033C84.7499 12.4683 83.5224 14.6428 83.5224 17.7643Z" fill="black" fill-opacity="0.2"/>
  <path d="M63.455 27.3036C59.3515 27.3036 56.0195 24.0418 56.0195 17.7637C56.0195 11.2051 59.5268 8.18886 63.455 8.15379C66.4362 8.18886 68.0144 9.9425 68.7159 11.5909H68.8562V2.19141H74.6081V27.023H68.9263V24.0067H68.7159C67.9794 25.6902 66.3309 27.3036 63.455 27.3036ZM61.9819 17.6936C61.9468 20.78 63.2095 22.7792 65.4892 22.7441C67.6637 22.7792 68.9965 20.78 68.9965 17.6936C68.9965 14.6072 67.6988 12.7133 65.4892 12.7133C63.1744 12.7133 61.9468 14.6773 61.9819 17.6936Z" fill="#303030"/>
  <path d="M63.455 27.3036C59.3515 27.3036 56.0195 24.0418 56.0195 17.7637C56.0195 11.2051 59.5268 8.18886 63.455 8.15379C66.4362 8.18886 68.0144 9.9425 68.7159 11.5909H68.8562V2.19141H74.6081V27.023H68.9263V24.0067H68.7159C67.9794 25.6902 66.3309 27.3036 63.455 27.3036ZM61.9819 17.6936C61.9468 20.78 63.2095 22.7792 65.4892 22.7441C67.6637 22.7792 68.9965 20.78 68.9965 17.6936C68.9965 14.6072 67.6988 12.7133 65.4892 12.7133C63.1744 12.7133 61.9468 14.6773 61.9819 17.6936Z" fill="black" fill-opacity="0.2"/>
  <path d="M63.455 27.3036C59.3515 27.3036 56.0195 24.0418 56.0195 17.7637C56.0195 11.2051 59.5268 8.18886 63.455 8.15379C66.4362 8.18886 68.0144 9.9425 68.7159 11.5909H68.8562V2.19141H74.6081V27.023H68.9263V24.0067H68.7159C67.9794 25.6902 66.3309 27.3036 63.455 27.3036ZM61.9819 17.6936C61.9468 20.78 63.2095 22.7792 65.4892 22.7441C67.6637 22.7792 68.9965 20.78 68.9965 17.6936C68.9965 14.6072 67.6988 12.7133 65.4892 12.7133C63.1744 12.7133 61.9468 14.6773 61.9819 17.6936Z" fill="black" fill-opacity="0.2"/>
  <path d="M33.2227 16.3613V27.0235H27.4006V8.43488H32.9421V11.8019H33.1526C33.9593 9.55721 36.0286 8.18937 38.7642 8.1543C42.6924 8.18937 45.2176 10.9601 45.2176 15.1689V27.0235H39.4657V16.2912C39.4657 14.1868 38.3083 12.9242 36.3793 12.9242C34.4854 12.9242 33.2227 14.2219 33.2227 16.3613Z" fill="#303030"/>
  <path d="M33.2227 16.3613V27.0235H27.4006V8.43488H32.9421V11.8019H33.1526C33.9593 9.55721 36.0286 8.18937 38.7642 8.1543C42.6924 8.18937 45.2176 10.9601 45.2176 15.1689V27.0235H39.4657V16.2912C39.4657 14.1868 38.3083 12.9242 36.3793 12.9242C34.4854 12.9242 33.2227 14.2219 33.2227 16.3613Z" fill="black" fill-opacity="0.2"/>
  <path d="M33.2227 16.3613V27.0235H27.4006V8.43488H32.9421V11.8019H33.1526C33.9593 9.55721 36.0286 8.18937 38.7642 8.1543C42.6924 8.18937 45.2176 10.9601 45.2176 15.1689V27.0235H39.4657V16.2912C39.4657 14.1868 38.3083 12.9242 36.3793 12.9242C34.4854 12.9242 33.2227 14.2219 33.2227 16.3613Z" fill="black" fill-opacity="0.2"/>
  <ellipse cx="10.9603" cy="10.9603" rx="10.9603" ry="10.9603" fill="#FF4A4A"/>
  <ellipse cx="10.9603" cy="25.3639" rx="10.9603" ry="2.19205" fill="#FF4A4A"/>
</svg>