<svg width="24" height="25" viewBox="0 0 24 25" fill="none" xmlns="http://www.w3.org/2000/svg">
<path d="M8.26653 15.1797C8.08253 15.1797 7.95853 15.1977 7.89453 15.2157V16.3937C7.97053 16.4117 8.06553 16.4167 8.19653 16.4167C8.67553 16.4167 8.97053 16.1747 8.97053 15.7657C8.97053 15.3997 8.71653 15.1797 8.26653 15.1797ZM11.7535 15.1917C11.5535 15.1917 11.4235 15.2097 11.3465 15.2277V17.8377C11.4235 17.8557 11.5475 17.8557 11.6595 17.8557C12.4765 17.8617 13.0085 17.4117 13.0085 16.4597C13.0145 15.6297 12.5295 15.1917 11.7535 15.1917Z" fill="#959595"/>
<path d="M14 2.5H6C5.46957 2.5 4.96086 2.71071 4.58579 3.08579C4.21071 3.46086 4 3.96957 4 4.5V20.5C4 21.0304 4.21071 21.5391 4.58579 21.9142C4.96086 22.2893 5.46957 22.5 6 22.5H18C18.5304 22.5 19.0391 22.2893 19.4142 21.9142C19.7893 21.5391 20 21.0304 20 20.5V8.5L14 2.5ZM9.498 16.69C9.189 16.98 8.733 17.11 8.202 17.11C8.09904 17.1111 7.99613 17.1051 7.894 17.092V18.518H7V14.582C7.40345 14.5218 7.81112 14.4944 8.219 14.5C8.776 14.5 9.172 14.606 9.439 14.819C9.693 15.021 9.865 15.352 9.865 15.742C9.864 16.134 9.734 16.465 9.498 16.69ZM13.305 18.045C12.885 18.394 12.246 18.56 11.465 18.56C10.997 18.56 10.666 18.53 10.441 18.5V14.583C10.8446 14.5241 11.2521 14.4963 11.66 14.5C12.417 14.5 12.909 14.636 13.293 14.926C13.708 15.234 13.968 15.725 13.968 16.43C13.968 17.193 13.689 17.72 13.305 18.045ZM17 15.27H15.468V16.181H16.9V16.915H15.468V18.519H14.562V14.53H17V15.27ZM14 9.5H13V4.5L18 9.5H14Z" fill="#959595"/>
</svg>
